<svg id="Layer_1" data-name="Layer 1" xmlns="http://www.w3.org/2000/svg" viewBox="0 0 150 60"><defs><style>.cls-1{fill:#009688;}.cls-2{fill:#bccc34;}.cls-3{font-size:23.35px;font-family:Lato-Hairline, Lato;font-weight:100;}.cls-4{letter-spacing:0em;}</style></defs><path class="cls-1" d="M40.12,43.28H24.7c-11.4,0-21-9-21.26-20.37A20.87,20.87,0,0,1,24.28,1.58H52.93a5.7,5.7,0,0,1,5.7,5.7h0a5.7,5.7,0,0,1-5.7,5.7H24.58a9.57,9.57,0,0,0-9.72,10.21,9.47,9.47,0,0,0,9.42,8.69H40.12a0,0,0,0,1,0,0V43.26S40.14,43.28,40.12,43.28Z"/><path class="cls-1" d="M39.89,58.42H11.66A5.71,5.71,0,0,1,6,52.72H6a5.7,5.7,0,0,1,5.7-5.7H40a9.56,9.56,0,0,0,9.71-10.21,9.47,9.47,0,0,0-9.42-8.69H24.47s0,0,0,0V16.74l0,0H40.31A20.86,20.86,0,0,1,61.15,38,21.12,21.12,0,0,1,39.89,58.42Z"/><circle class="cls-2" cx="40.15" cy="37.58" r="7.13" transform="translate(-5.7 67.95) rotate(-76.63)"/><circle class="cls-2" cx="24.45" cy="22.42" r="7.13"/><text class="cls-3" transform="translate(64.34 27.25)">SoftD<tspan class="cls-4" x="57.46" y="0">e</tspan><tspan x="69.02" y="0">v</tspan><tspan x="0" y="28.02">Group</tspan></text></svg>