<?xml version="1.0" encoding="utf-8"?>
<!-- Generator: Adobe Illustrator 24.1.1, SVG Export Plug-In . SVG Version: 6.00 Build 0)  -->
<svg version="1.1" id="Layer_1" xmlns="http://www.w3.org/2000/svg" xmlns:xlink="http://www.w3.org/1999/xlink" x="0px" y="0px"
	 viewBox="0 0 60 60" style="enable-background:new 0 0 60 60;" xml:space="preserve">
<style type="text/css">
	.st0{fill:#6E6E6E;}
	.st1{fill:#009688;}
</style>
<g>
	<path class="st0" d="M60,10.9v48.5c0,0.4-0.3,0.6-0.6,0.6H0.6C0.3,60,0,59.7,0,59.4V10.9c0,0.4,0.3,0.6,0.6,0.6h0.6v47.2h57.4V11.5
		h0.6C59.7,11.5,60,11.2,60,10.9z"/>
	<path class="st0" d="M60,5.7v5.1c0-0.4-0.3-0.6-0.6-0.6h-0.6V6.4h0.6C59.7,6.4,60,6.1,60,5.7z"/>
	<path class="st0" d="M60,0.6v5.1c0-0.3-0.3-0.6-0.6-0.6h-0.6V1.3H19.1V0.6c0-0.4-0.3-0.6-0.6-0.6h40.8C59.7,0,60,0.3,60,0.6z"/>
	<path class="st0" d="M59.4,5.1c0.4,0,0.6,0.3,0.6,0.6c0,0.4-0.3,0.6-0.6,0.6h-0.6V5.1H59.4z"/>
	<path class="st0" d="M59.4,10.2c0.4,0,0.6,0.3,0.6,0.6s-0.3,0.6-0.6,0.6h-0.6v-1.3H59.4z"/>
	<path class="st0" d="M58.7,10.2v1.3H18.5c0.3,0,0.6-0.3,0.6-0.6v-0.6H58.7z"/>
	<path class="st0" d="M58.7,5.1v1.3H32.6c-0.4,0-0.6-0.3-0.6-0.6c0-0.3,0.3-0.6,0.6-0.6H58.7z"/>
	<path class="st0" d="M54.9,46.6v7.7c0,0.4-0.3,0.6-0.6,0.6h-3.8c-0.4,0-0.6-0.3-0.6-0.6s0.3-0.6,0.6-0.6h3.2v-7
		c0-0.4,0.3-0.6,0.6-0.6C54.6,46,54.9,46.2,54.9,46.6z"/>
	<path class="st0" d="M54.9,16v7.7c0,0.4-0.3,0.6-0.6,0.6c-0.4,0-0.6-0.3-0.6-0.6v-7h-3.2c-0.4,0-0.6-0.3-0.6-0.6
		c0-0.4,0.3-0.6,0.6-0.6h3.8C54.6,15.3,54.9,15.6,54.9,16z"/>
	<path class="st0" d="M49.8,38.9v10.2c0,0.4-0.3,0.6-0.6,0.6h-8.9c0.4,0,0.6-0.3,0.6-0.6v-0.6h7.7v-8.9h-7.7v-0.6
		c0-0.4-0.3-0.6-0.6-0.6h8.9C49.5,38.3,49.8,38.6,49.8,38.9z"/>
	<path class="st0" d="M40.9,48.5v0.6c0,0.4-0.3,0.6-0.6,0.6c-0.3,0-0.6-0.3-0.6-0.6v-0.6H40.9z"/>
	<rect x="39.6" y="39.6" class="st0" width="1.3" height="8.9"/>
	<path class="st0" d="M40.9,38.9v0.6h-1.3v-0.6c0-0.4,0.3-0.6,0.6-0.6C40.6,38.3,40.9,38.6,40.9,38.9z"/>
	<path class="st0" d="M33.9,38.3h6.3c-0.3,0-0.6,0.3-0.6,0.6v0.6H11.5v8.9h28.1v0.6c0,0.4,0.3,0.6,0.6,0.6H10.9
		c-0.4,0-0.6-0.3-0.6-0.6V38.9c0-0.4,0.3-0.6,0.6-0.6h15.3c1.2,0.6,2.5,0.9,3.9,0.9S32.7,38.9,33.9,38.3z"/>
	<path class="st0" d="M39,26.9v3.4c0,3.6-2.1,6.6-5.1,8.1h-7.8c-3-1.4-5.1-4.5-5.1-8.1v-3.4c0-1.8,1.4-3.2,3.2-3.2h0.3v0.6
		c0,0.4,0.3,0.6,0.6,0.6h-1c-1.1,0-2,0.9-2,2v3.4c0,4.2,3.4,7.7,7.7,7.7s7.7-3.4,7.7-7.7v-3.4c0-1.1-0.9-2-2-2h-1
		c0.4,0,0.6-0.3,0.6-0.6v-0.6h0.3C37.5,23.6,39,25.1,39,26.9z"/>
	<path class="st1" d="M37.7,26.9v3.4c0,4.2-3.4,7.7-7.7,7.7s-7.7-3.4-7.7-7.7v-3.4c0-1.1,0.9-2,2-2h1h9.5h1
		C36.8,24.9,37.7,25.8,37.7,26.9z M30.6,32c0.6-0.2,1-0.8,1-1.5c0-0.9-0.7-1.7-1.7-1.7s-1.7,0.8-1.7,1.7c0,0.7,0.4,1.3,1,1.5v1.9
		c0,0.4,0.3,0.6,0.6,0.6s0.6-0.3,0.6-0.6V32z"/>
	<path class="st0" d="M35.4,23.6v0.6c0,0.4-0.3,0.6-0.6,0.6h-9.5c-0.4,0-0.6-0.3-0.6-0.6v-0.6h1.3h8.2H35.4z"/>
	<path class="st0" d="M35.4,20v3.6h-1.3V20c0-1.9-1.5-3.4-3.4-3.4h-1.5c-1.9,0-3.4,1.5-3.4,3.4v3.6h-1.3V20c0-2.6,2.1-4.7,4.7-4.7
		h1.5C33.3,15.3,35.4,17.4,35.4,20z"/>
	<rect x="32.6" y="42.8" class="st0" width="2.6" height="2.6"/>
	<path class="st0" d="M26.1,38.3h7.8c-1.2,0.6-2.5,0.9-3.9,0.9S27.3,38.9,26.1,38.3z"/>
	<rect x="28.7" y="42.8" class="st0" width="2.6" height="2.6"/>
	<path class="st0" d="M31.7,30.4c0,0.7-0.4,1.3-1,1.5v-0.5c0-0.4-0.3-0.6-0.6-0.6c0.2,0,0.4-0.2,0.4-0.4c0-0.2-0.2-0.4-0.4-0.4
		s-0.4,0.2-0.4,0.4c0,0.2,0.2,0.4,0.4,0.4c-0.4,0-0.6,0.3-0.6,0.6V32c-0.6-0.2-1-0.8-1-1.5c0-0.9,0.8-1.7,1.7-1.7
		S31.7,29.5,31.7,30.4z"/>
	<path class="st0" d="M30.6,32v1.9c0,0.4-0.3,0.6-0.6,0.6s-0.6-0.3-0.6-0.6V32c0.2,0.1,0.4,0.1,0.6,0.1S30.4,32.1,30.6,32z"/>
	<path class="st0" d="M30.6,31.5V32c-0.2,0.1-0.4,0.1-0.6,0.1s-0.4,0-0.6-0.1v-0.5c0-0.4,0.3-0.6,0.6-0.6S30.6,31.1,30.6,31.5z"/>
	<rect x="24.9" y="42.8" class="st0" width="2.6" height="2.6"/>
	<path class="st0" d="M22.3,43.4c0.4,0,0.6,0.3,0.6,0.6s-0.3,0.6-0.6,0.6H16c-0.4,0-0.6-0.3-0.6-0.6s0.3-0.6,0.6-0.6H22.3z"/>
	<path class="st0" d="M19.1,10.2v0.6c0,0.4-0.3,0.6-0.6,0.6c-0.4,0-0.6-0.3-0.6-0.6v-0.6H19.1z"/>
	<rect x="17.9" y="1.3" class="st0" width="1.3" height="8.9"/>
	<path class="st0" d="M19.1,0.6v0.6h-1.3V0.6c0-0.4,0.3-0.6,0.6-0.6C18.9,0,19.1,0.3,19.1,0.6z"/>
	<path class="st0" d="M0.6,0h17.9c-0.4,0-0.6,0.3-0.6,0.6v0.6H1.3v8.9H0.6c-0.3,0-0.6,0.3-0.6,0.6V0.6C0,0.3,0.3,0,0.6,0z"/>
	<path class="st0" d="M18.5,11.5H1.3v-1.3h16.6v0.6C17.9,11.2,18.2,11.5,18.5,11.5z"/>
	<rect x="12.1" y="4.5" class="st0" width="2.6" height="2.6"/>
	<rect x="8.3" y="4.5" class="st0" width="2.6" height="2.6"/>
	<path class="st0" d="M9.6,15.3c0.4,0,0.6,0.3,0.6,0.6c0,0.4-0.3,0.6-0.6,0.6H6.4v7c0,0.4-0.3,0.6-0.6,0.6c-0.4,0-0.6-0.3-0.6-0.6
		V16c0-0.4,0.3-0.6,0.6-0.6H9.6z"/>
	<path class="st0" d="M9.6,53.6c0.4,0,0.6,0.3,0.6,0.6s-0.3,0.6-0.6,0.6H5.7c-0.4,0-0.6-0.3-0.6-0.6v-7.7c0-0.4,0.3-0.6,0.6-0.6
		c0.4,0,0.6,0.3,0.6,0.6v7H9.6z"/>
	<rect x="4.5" y="4.5" class="st0" width="2.6" height="2.6"/>
	<path class="st0" d="M1.3,10.2v1.3H0.6c-0.3,0-0.6-0.3-0.6-0.6s0.3-0.6,0.6-0.6H1.3z"/>
</g>
</svg>
