<?xml version="1.0" encoding="utf-8"?>
<!-- Generator: Adobe Illustrator 24.1.1, SVG Export Plug-In . SVG Version: 6.00 Build 0)  -->
<svg version="1.1" id="Layer_1" xmlns="http://www.w3.org/2000/svg" xmlns:xlink="http://www.w3.org/1999/xlink" x="0px" y="0px"
	 viewBox="0 0 60 60" style="enable-background:new 0 0 60 60;" xml:space="preserve">
<style type="text/css">
	.st0{fill:#6E6E6E;}
	.st1{fill:#C0CA33;}
</style>
<g>
	<path class="st0" d="M60,17.2v42.1c0,0.3-0.3,0.6-0.6,0.6H0.6C0.3,60,0,59.7,0,59.4v-5.1c0,0.4,0.3,0.6,0.6,0.6h0.6v3.8h57.4V17.9
		h0.6C59.7,17.9,60,17.6,60,17.2z"/>
	<path class="st0" d="M60,10.9v6.4c0-0.4-0.3-0.6-0.6-0.6h-0.6v-5.1h0.6C59.7,11.5,60,11.2,60,10.9z"/>
	<path class="st0" d="M60,5.7v5.1c0-0.4-0.3-0.6-0.6-0.6h-0.6V6.4h0.6C59.7,6.4,60,6.1,60,5.7z"/>
	<path class="st0" d="M60,0.6v5.1c0-0.3-0.3-0.6-0.6-0.6h-0.6V1.3H19.1V0.6c0-0.4-0.3-0.6-0.6-0.6h40.8C59.7,0,60,0.3,60,0.6z"/>
	<path class="st0" d="M59.4,5.1c0.4,0,0.6,0.3,0.6,0.6c0,0.4-0.3,0.6-0.6,0.6h-0.6V5.1H59.4z"/>
	<path class="st0" d="M59.4,10.2c0.4,0,0.6,0.3,0.6,0.6s-0.3,0.6-0.6,0.6h-0.6v-1.3H59.4z"/>
	<path class="st0" d="M59.4,16.6c0.4,0,0.6,0.3,0.6,0.6s-0.3,0.6-0.6,0.6h-0.6v-1.3H59.4z"/>
	<path class="st0" d="M58.7,16.6v1.3H23.6c-0.4,0-0.6-0.3-0.6-0.6s0.3-0.6,0.6-0.6H58.7z"/>
	<path class="st0" d="M58.7,10.2v1.3H18.5c0.3,0,0.6-0.3,0.6-0.6v-0.6H58.7z"/>
	<path class="st0" d="M58.7,5.1v1.3H32.6c-0.4,0-0.6-0.3-0.6-0.6c0-0.3,0.3-0.6,0.6-0.6H58.7z"/>
	<path class="st0" d="M54.9,47.9v6.4c0,0.4-0.3,0.6-0.6,0.6H28.7c-0.4,0-0.6-0.3-0.6-0.6v-6.4c0-0.4,0.3-0.6,0.6-0.6h25.5
		C54.6,47.2,54.9,47.5,54.9,47.9z M53.6,53.6v-5.1H29.4v5.1H53.6z"/>
	<path class="st0" d="M54.9,36.4v6.4c0,0.4-0.3,0.6-0.6,0.6H28.7c-0.4,0-0.6-0.3-0.6-0.6v-6.4c0-0.4,0.3-0.6,0.6-0.6h25.5
		C54.6,35.7,54.9,36,54.9,36.4z M53.6,42.1V37H29.4v5.1H53.6z"/>
	<path class="st0" d="M54.9,24.9v6.4c0,0.4-0.3,0.6-0.6,0.6H28.7c-0.4,0-0.6-0.3-0.6-0.6v-6.4c0-0.3,0.3-0.6,0.6-0.6h25.5
		C54.6,24.3,54.9,24.5,54.9,24.9z M53.6,30.6v-5.1H29.4v5.1H53.6z"/>
	<rect x="47.9" y="19.8" class="st0" width="2.6" height="2.6"/>
	<rect x="42.8" y="19.8" class="st0" width="2.6" height="2.6"/>
	<rect x="37.7" y="19.8" class="st0" width="2.5" height="2.6"/>
	<rect x="32.6" y="19.8" class="st0" width="2.6" height="2.6"/>
	<path class="st0" d="M21.8,33.7v3.6c0,0.3-0.2,0.6-0.5,0.6l-5,1.1c-0.3,1.3-0.9,2.6-1.6,3.8l2.7,4.3c0.2,0.2,0.1,0.6-0.1,0.8
		l-2.5,2.5c-0.2,0.2-0.5,0.2-0.8,0.1l-4.3-2.7c-1.2,0.7-2.5,1.2-3.8,1.6l-1.1,5c-0.1,0.3-0.3,0.5-0.6,0.5h-3v-1.3h2.4l1.1-4.9
		c0.1-0.2,0.2-0.4,0.5-0.5c1.5-0.3,2.9-0.9,4.2-1.7c0.2-0.1,0.5-0.1,0.7,0l4.2,2.7l1.8-1.8l-2.7-4.2c-0.1-0.2-0.1-0.5,0-0.7
		c0.8-1.3,1.4-2.7,1.7-4.1c0.1-0.2,0.2-0.4,0.5-0.5l4.9-1.1v-2.6l-4.9-1.1c-0.2-0.1-0.4-0.2-0.5-0.5c-0.3-1.5-0.9-2.9-1.7-4.1
		c-0.1-0.2-0.1-0.5,0-0.7l2.7-4.2l-1.8-1.8l-4.2,2.7c-0.2,0.1-0.5,0.1-0.7,0c-1.3-0.8-2.7-1.4-4.2-1.7c-0.2-0.1-0.4-0.2-0.5-0.5
		l-1.1-4.9H1.3v-1.3h3c0.3,0,0.6,0.2,0.6,0.5l1.1,5c1.4,0.3,2.6,0.9,3.8,1.6l4.3-2.7c0.3-0.2,0.6-0.1,0.8,0.1l2.5,2.5
		c0.2,0.2,0.2,0.5,0.1,0.8l-2.7,4.3c0.7,1.2,1.2,2.5,1.6,3.8l5,1.1C21.6,33.1,21.8,33.4,21.8,33.7z"/>
	<path class="st1" d="M20.6,34.2v2.6l-4.9,1.1c-0.2,0.1-0.4,0.2-0.5,0.5c-0.3,1.5-0.9,2.9-1.7,4.1c-0.1,0.2-0.1,0.5,0,0.7l2.7,4.2
		l-1.8,1.8l-4.2-2.7c-0.2-0.1-0.5-0.1-0.7,0c-1.3,0.8-2.7,1.4-4.2,1.7c-0.2,0.1-0.4,0.2-0.5,0.5l-1.1,4.9H1.3V42.9
		c0.1,0,0.2,0.1,0.2,0.1c4.1,0,7.4-3.3,7.4-7.4s-3.3-7.4-7.4-7.4c-0.1,0-0.2,0-0.2,0.1V17.4h2.4l1.1,4.9c0.1,0.2,0.2,0.4,0.5,0.5
		c1.5,0.3,2.9,0.9,4.2,1.7c0.2,0.1,0.5,0.1,0.7,0l4.2-2.7l1.8,1.8l-2.7,4.2c-0.1,0.2-0.1,0.5,0,0.7c0.8,1.3,1.4,2.7,1.7,4.1
		c0.1,0.2,0.2,0.4,0.5,0.5L20.6,34.2z"/>
	<path class="st0" d="M20.2,16.8c0.1,0.1,0.2,0.3,0.2,0.5c0,0.2-0.1,0.3-0.2,0.5c-0.1,0.1-0.3,0.2-0.5,0.2c-0.2,0-0.3-0.1-0.5-0.2
		c-0.1-0.1-0.2-0.3-0.2-0.5c0-0.2,0.1-0.3,0.2-0.5c0.1-0.1,0.3-0.2,0.5-0.2C20,16.6,20.1,16.7,20.2,16.8z"/>
	<path class="st0" d="M19.1,10.2v0.6c0,0.4-0.3,0.6-0.6,0.6c-0.4,0-0.6-0.3-0.6-0.6v-0.6H19.1z"/>
	<rect x="17.9" y="1.3" class="st0" width="1.3" height="8.9"/>
	<path class="st0" d="M19.1,0.6v0.6h-1.3V0.6c0-0.4,0.3-0.6,0.6-0.6C18.9,0,19.1,0.3,19.1,0.6z"/>
	<path class="st0" d="M0.6,0h17.9c-0.4,0-0.6,0.3-0.6,0.6v0.6H1.3v8.9H0.6c-0.4,0-0.6,0.3-0.6,0.6V0.6C0,0.3,0.3,0,0.6,0z"/>
	<path class="st0" d="M18.5,11.5H1.3v-1.3h16.6v0.6C17.9,11.2,18.2,11.5,18.5,11.5z"/>
	<rect x="12.1" y="4.5" class="st0" width="2.6" height="2.6"/>
	<rect x="8.3" y="4.5" class="st0" width="2.6" height="2.6"/>
	<path class="st0" d="M1.5,28.1c4.1,0,7.4,3.3,7.4,7.4s-3.3,7.4-7.4,7.4c-0.1,0-0.2,0-0.2-0.1v-1.2c0.1,0,0.2-0.1,0.2-0.1
		c3.4,0,6.1-2.7,6.1-6.1c0-3.4-2.8-6.2-6.1-6.2c-0.1,0-0.2,0-0.2-0.1v-1.2C1.4,28.1,1.4,28.1,1.5,28.1z"/>
	<rect x="4.5" y="4.5" class="st0" width="2.6" height="2.6"/>
	<path class="st0" d="M1.3,53.6v1.3H0.6c-0.4,0-0.6-0.3-0.6-0.6s0.3-0.6,0.6-0.6H1.3z"/>
	<path class="st0" d="M1.3,42.9v10.8H0.6c-0.4,0-0.6,0.3-0.6,0.6V16.7c0,0.4,0.3,0.6,0.6,0.6h0.6v10.8c-0.2,0.1-0.4,0.3-0.4,0.6
		c0,0.3,0.2,0.5,0.4,0.6v12.4C1,41.8,0.9,42,0.9,42.3C0.9,42.5,1,42.8,1.3,42.9z"/>
	<path class="st0" d="M1.3,41.7v1.2c-0.2-0.1-0.4-0.3-0.4-0.6C0.9,42,1,41.8,1.3,41.7z"/>
	<path class="st0" d="M1.3,28.1v1.2C1,29.2,0.9,29,0.9,28.7C0.9,28.4,1,28.2,1.3,28.1z"/>
	<path class="st0" d="M1.3,16.1v1.3H0.6c-0.4,0-0.6-0.3-0.6-0.6s0.3-0.6,0.6-0.6H1.3z"/>
	<path class="st0" d="M1.3,11.5v4.6H0.6c-0.4,0-0.6,0.3-0.6,0.6v-5.9c0,0.4,0.3,0.6,0.6,0.6H1.3z"/>
	<path class="st0" d="M1.3,10.2v1.3H0.6c-0.4,0-0.6-0.3-0.6-0.6s0.3-0.6,0.6-0.6H1.3z"/>
</g>
</svg>
