<?xml version="1.0" encoding="utf-8"?>
<!-- Generator: Adobe Illustrator 24.1.1, SVG Export Plug-In . SVG Version: 6.00 Build 0)  -->
<svg version="1.1" id="Layer_1" xmlns="http://www.w3.org/2000/svg" xmlns:xlink="http://www.w3.org/1999/xlink" x="0px" y="0px"
	 viewBox="0 0 60 59" style="enable-background:new 0 0 60 59;" xml:space="preserve">
<style type="text/css">
	.st0{fill:#6E6E6E;}
	.st1{fill:#009688;}
	.st2{fill:#C0CA33;}
</style>
<g>
	<path class="st0" d="M59.1,49.2c0.4,0,0.7,0.3,0.7,0.7c0,0.4-0.3,0.7-0.7,0.7h-5.3c-0.4,0-0.7-0.3-0.7-0.7c0-0.4,0.3-0.7,0.7-0.7
		H59.1z"/>
	<path class="st0" d="M59.1,53.1c0.4,0,0.7,0.3,0.7,0.7c0,0.4-0.3,0.7-0.7,0.7h-12c-0.4,0-0.7-0.3-0.7-0.7c0-0.4,0.3-0.7,0.7-0.7
		H59.1z"/>
	<path class="st0" d="M58.7,36.5v5.4c0,2.1-1.7,3.8-3.8,3.8H36l-0.3-0.8c-0.1-0.3-0.3-0.5-0.6-0.5h19.8c1.4,0,2.5-1.1,2.5-2.5v-4.7
		h0.7C58.4,37.2,58.7,36.9,58.7,36.5z"/>
	<path class="st0" d="M58.7,4.9v31.7c0-0.4-0.3-0.7-0.7-0.7h-0.7v-31c0-1.4-1.1-2.5-2.5-2.5H3.8c-1.4,0-2.5,1.1-2.5,2.5v31H0.7
		c-0.4,0-0.7,0.3-0.7,0.7V4.9C0,2.8,1.7,1,3.8,1h51.1C57,1,58.7,2.8,58.7,4.9z"/>
	<path class="st0" d="M58.1,35.9c0.4,0,0.7,0.3,0.7,0.7s-0.3,0.7-0.7,0.7h-0.7v-1.3H58.1z"/>
	<path class="st0" d="M57.4,35.9v1.3H28.7H15.3c-0.4,0-0.7-0.3-0.7-0.7s0.3-0.7,0.7-0.7H57.4z"/>
	<path class="st0" d="M53.2,7.3v19.9c0,0.4-0.3,0.7-0.7,0.7h-4.7v-1.3h4V7.3c0-0.4,0.3-0.7,0.7-0.7S53.2,6.9,53.2,7.3z"/>
	<path class="st0" d="M47.8,27.9v2c0,0.4-0.3,0.7-0.7,0.7H32.6c-0.4,0-0.7-0.3-0.7-0.7v-2h0.7c0.4,0,0.7-0.3,0.7-0.7v2h13.3v-2
		c0,0.4,0.3,0.7,0.7,0.7H47.8z"/>
	<path class="st0" d="M47.8,26.6v1.3h-0.7c-0.4,0-0.7-0.3-0.7-0.7c0-0.4,0.3-0.7,0.7-0.7H47.8z"/>
	<path class="st0" d="M47.8,15.3v11.3h-0.7c-0.4,0-0.7,0.3-0.7,0.7V15.9h-6c0.4,0,0.7-0.3,0.7-0.7v-0.7h6
		C47.5,14.6,47.8,14.9,47.8,15.3z"/>
	<path class="st1" d="M46.5,27.2v2H33.2v-2v-5.3v-6h7.3h6V27.2z M42.5,19.3c0-0.4-0.3-0.7-0.7-0.7h-1.3c-0.4,0-0.7,0.3-0.7,0.7
		c0,0.4,0.3,0.7,0.7,0.7h1.3C42.2,19.9,42.5,19.6,42.5,19.3z M42.5,23.2c0-0.4-0.3-0.7-0.7-0.7h-1.3c-0.4,0-0.7,0.3-0.7,0.7
		c0,0.4,0.3,0.7,0.7,0.7h1.3C42.2,23.9,42.5,23.6,42.5,23.2z"/>
	<path class="st0" d="M45.3,57.1c0.4,0,0.7,0.3,0.7,0.7c0,0.4-0.3,0.7-0.7,0.7h-6.4c0.4,0,0.7-0.3,0.7-0.7c0-0.1,0-0.2,0-0.2
		l-0.1-0.4H45.3z"/>
	<path class="st0" d="M41.9,18.6c0.4,0,0.7,0.3,0.7,0.7c0,0.4-0.3,0.7-0.7,0.7h-1.3c-0.4,0-0.7-0.3-0.7-0.7c0-0.4,0.3-0.7,0.7-0.7
		H41.9z"/>
	<path class="st0" d="M41.9,22.6c0.4,0,0.7,0.3,0.7,0.7c0,0.4-0.3,0.7-0.7,0.7h-1.3c-0.4,0-0.7-0.3-0.7-0.7c0-0.4,0.3-0.7,0.7-0.7
		H41.9z"/>
	<path class="st0" d="M41.2,14.6v0.7c0,0.4-0.3,0.7-0.7,0.7h-7.3v6c0,0.4-0.3,0.7-0.7,0.7h-0.7v-1.3v-6c0-0.4,0.3-0.7,0.7-0.7h7.3
		H41.2z"/>
	<path class="st0" d="M41.2,7.3v7.3h-1.3V8H26.6v13.3h5.3v1.3h-6c-0.4,0-0.7-0.3-0.7-0.7V7.3c0-0.4,0.3-0.7,0.7-0.7h14.6
		C40.9,6.6,41.2,6.9,41.2,7.3z"/>
	<path class="st2" d="M39.9,8v6.6h-7.3c-0.4,0-0.7,0.3-0.7,0.7v6h-5.3V8H39.9z"/>
	<path class="st0" d="M39.6,57.6c0,0.1,0,0.2,0,0.2c0,0.4-0.3,0.7-0.7,0.7H18.5c-0.2,0-0.4-0.1-0.5-0.3c-0.1-0.2-0.2-0.4-0.1-0.6
		l0.1-0.5h1.4H38h1.4L39.6,57.6z"/>
	<polygon class="st0" points="39.4,57.1 38,57.1 34.6,45.7 36,45.7 	"/>
	<path class="st0" d="M35.7,44.9l0.3,0.8h-1.4H22.8h-1.4l0.3-0.8c0.1-0.3,0.3-0.5,0.6-0.5h6.3h6.4C35.4,44.4,35.7,44.6,35.7,44.9z"
		/>
	<path class="st0" d="M33.2,21.9v5.3c0-0.4-0.3-0.7-0.7-0.7h-0.7v-4h0.7C32.9,22.6,33.2,22.3,33.2,21.9z"/>
	<path class="st0" d="M32.6,26.6c0.4,0,0.7,0.3,0.7,0.7c0,0.4-0.3,0.7-0.7,0.7h-0.7v-1.3H32.6z"/>
	<path class="st0" d="M31.9,26.6v1.3h-2.7v4.6c0,0.4-0.3,0.7-0.7,0.7c-0.4,0-0.7-0.3-0.7-0.7v-5.3c0-0.4,0.3-0.7,0.7-0.7H31.9z"/>
	<path class="st0" d="M28.7,39.2c0.8,0,1.4,0.6,1.4,1.4c0,0.8-0.6,1.4-1.4,1.4s-1.4-0.6-1.4-1.4C27.3,39.8,27.9,39.2,28.7,39.2z"/>
	<polygon class="st0" points="22.8,45.7 19.4,57.1 18,57.1 21.5,45.7 	"/>
	<path class="st0" d="M3.8,44.4h18.5c-0.3,0-0.5,0.2-0.6,0.5l-0.3,0.8H3.8C1.7,45.7,0,44,0,41.9v-5.4c0,0.4,0.3,0.7,0.7,0.7h0.7v4.7
		C1.3,43.3,2.5,44.4,3.8,44.4z"/>
	<path class="st0" d="M19.9,7.3v23.9c0,0.4-0.3,0.7-0.7,0.7H6c-0.4,0-0.7-0.3-0.7-0.7V7.3c0-0.4,0.3-0.7,0.7-0.7h13.3
		C19.6,6.6,19.9,6.9,19.9,7.3z M18.6,30.6V8h-12v22.6H18.6z"/>
	<path class="st0" d="M18.5,58.5h-6.4c-0.4,0-0.7-0.3-0.7-0.7c0-0.4,0.3-0.7,0.7-0.7H18l-0.1,0.5c-0.1,0.2,0,0.4,0.1,0.6
		C18.1,58.4,18.3,58.5,18.5,58.5z"/>
	<path class="st0" d="M15.3,14.6c0.4,0,0.7,0.3,0.7,0.7s-0.3,0.7-0.7,0.7h-2.7c-0.4,0-0.7-0.3-0.7-0.7s0.3-0.7,0.7-0.7H15.3z"/>
	<path class="st0" d="M15.3,22.6c0.4,0,0.7,0.3,0.7,0.7c0,0.4-0.3,0.7-0.7,0.7h-2.7c-0.4,0-0.7-0.3-0.7-0.7c0-0.4,0.3-0.7,0.7-0.7
		H15.3z"/>
	<path class="st0" d="M12.6,10.6c0.4,0,0.7,0.3,0.7,0.7s-0.3,0.7-0.7,0.7H10c-0.4,0-0.7-0.3-0.7-0.7s0.3-0.7,0.7-0.7H12.6z"/>
	<path class="st0" d="M12.6,18.6c0.4,0,0.7,0.3,0.7,0.7c0,0.4-0.3,0.7-0.7,0.7H10c-0.4,0-0.7-0.3-0.7-0.7c0-0.4,0.3-0.7,0.7-0.7
		H12.6z"/>
	<path class="st0" d="M12.6,26.6c0.4,0,0.7,0.3,0.7,0.7c0,0.4-0.3,0.7-0.7,0.7H10c-0.4,0-0.7-0.3-0.7-0.7c0-0.4,0.3-0.7,0.7-0.7
		H12.6z"/>
	<path class="st0" d="M12.6,53.1c0.4,0,0.7,0.3,0.7,0.7c0,0.4-0.3,0.7-0.7,0.7h-12c-0.4,0-0.7-0.3-0.7-0.7c0-0.4,0.3-0.7,0.7-0.7
		H12.6z"/>
	<path class="st0" d="M9.6,35.9c0.4,0,0.7,0.3,0.7,0.7s-0.3,0.7-0.7,0.7H1.3v-1.3H9.6z"/>
	<path class="st0" d="M6,49.2c0.4,0,0.7,0.3,0.7,0.7c0,0.4-0.3,0.7-0.7,0.7H0.6c-0.4,0-0.7-0.3-0.7-0.7c0-0.4,0.3-0.7,0.7-0.7H6z"/>
	<path class="st0" d="M1.3,35.9v1.3H0.7c-0.4,0-0.7-0.3-0.7-0.7s0.3-0.7,0.7-0.7H1.3z"/>
</g>
</svg>
