<?xml version="1.0" encoding="utf-8"?>
<!-- Generator: Adobe Illustrator 24.1.1, SVG Export Plug-In . SVG Version: 6.00 Build 0)  -->
<svg version="1.1" id="Layer_1" xmlns="http://www.w3.org/2000/svg" xmlns:xlink="http://www.w3.org/1999/xlink" x="0px" y="0px"
	 viewBox="0 0 60 60" style="enable-background:new 0 0 60 60;" xml:space="preserve">
<style type="text/css">
	.st0{fill:#6F6F6F;}
</style>
<g>
	<path class="st0" d="M59.8,29.5c0,2.5-0.7,4.9-2.1,7c-0.1,0.2-0.3,0.3-0.5,0.3c-0.1,0-0.2,0-0.3-0.1c-0.3-0.2-0.4-0.6-0.2-0.9
		c1.2-1.9,1.8-4,1.8-6.3s-0.6-4.5-1.8-6.3c-0.2-0.3-0.1-0.7,0.2-0.9c0.3-0.2,0.7-0.1,0.9,0.2C59.1,24.5,59.8,27,59.8,29.5z"/>
	<path class="st0" d="M55.8,29.5c0,1.5-0.4,2.9-1.1,4.2c-0.1,0.2-0.3,0.3-0.5,0.3c-0.1,0-0.2,0-0.3-0.1c-0.3-0.2-0.4-0.6-0.2-0.9
		c0.6-1.1,0.9-2.3,0.9-3.5c0-1.3-0.3-2.5-0.9-3.5c-0.2-0.3-0.1-0.7,0.2-0.9c0.3-0.2,0.7-0.1,0.9,0.2C55.4,26.5,55.8,28,55.8,29.5z"
		/>
	<path class="st0" d="M49.7,4.6v50.8c0,2.5-2.1,4.6-4.6,4.6H14.7c-2.5,0-4.6-2.1-4.6-4.6V4.6c0-2.5,2.1-4.6,4.6-4.6h30.4
		C47.6,0,49.7,2.1,49.7,4.6z M48.4,55.4V4.6c0-1.8-1.5-3.3-3.3-3.3H14.7c-1.8,0-3.3,1.5-3.3,3.3v50.8c0,1.8,1.5,3.3,3.3,3.3h30.4
		C46.9,58.7,48.4,57.2,48.4,55.4z"/>
	<path class="st0" d="M44.6,26.2v22.9c0,0.4-0.3,0.6-0.6,0.6h-9.6c0.4,0,0.6-0.3,0.6-0.6s-0.3-0.6-0.6-0.6h8.9V26.2
		c0,0.4,0.3,0.6,0.6,0.6C44.3,26.9,44.6,26.6,44.6,26.2z"/>
	<path class="st0" d="M44.6,9.6v16.7c0,0.4-0.3,0.6-0.6,0.6c-0.4,0-0.6-0.3-0.6-0.6v-16H16.5v37.3l-1.1,1.2
		c-0.1,0.1-0.2,0.3-0.2,0.4V9.6c0-0.4,0.3-0.6,0.6-0.6h28.1C44.3,8.9,44.6,9.2,44.6,9.6z"/>
	<path class="st0" d="M39.5,14.7v7.7c0,0.3-0.3,0.6-0.6,0.6c-0.3,0-0.6-0.3-0.6-0.6v-7H35c-0.4,0-0.6-0.3-0.6-0.6S34.6,14,35,14h3.8
		C39.2,14,39.5,14.3,39.5,14.7z"/>
	<path class="st0" d="M36.7,32.1c0.3,0.2,0.3,0.6,0,0.9l-8.1,8.9c-0.1,0.1-0.3,0.2-0.5,0.2c-0.2,0-0.3-0.1-0.4-0.2
		c-0.3-0.2-0.3-0.6,0-0.9l8.1-8.9C36,31.9,36.4,31.8,36.7,32.1z"/>
	<path class="st0" d="M34.4,48.5c0.4,0,0.6,0.3,0.6,0.6s-0.3,0.6-0.6,0.6H15.9c0.2,0,0.3-0.1,0.5-0.2l1-1.1H34.4z"/>
	<path class="st0" d="M32.8,3.8c0.4,0,0.6,0.3,0.6,0.6c0,0.4-0.3,0.6-0.6,0.6h-6.7c-0.4,0-0.6-0.3-0.6-0.6c0-0.3,0.3-0.6,0.6-0.6
		H32.8z"/>
	<circle class="st0" cx="29.9" cy="53.9" r="2.4"/>
	<path class="st0" d="M29.9,19.1c0.4,0,0.6,0.3,0.6,0.6c0,0.3-0.3,0.6-0.6,0.6H21c-0.3,0-0.6-0.3-0.6-0.6c0-0.4,0.3-0.6,0.6-0.6
		H29.9z"/>
	<path class="st0" d="M29.9,23c0.4,0,0.6,0.3,0.6,0.6c0,0.4-0.3,0.6-0.6,0.6H21c-0.3,0-0.6-0.3-0.6-0.6c0-0.3,0.3-0.6,0.6-0.6H29.9z
		"/>
	<path class="st0" d="M29,34.6c0.3,0.2,0.3,0.6,0,0.9l-11.8,13h-0.8v-1l11.7-12.8C28.4,34.4,28.8,34.4,29,34.6z"/>
	<path class="st0" d="M17.3,48.5l-1,1.1c-0.1,0.1-0.3,0.2-0.5,0.2c-0.2,0-0.3-0.1-0.4-0.2c-0.1-0.1-0.2-0.3-0.2-0.5
		c0-0.2,0.1-0.3,0.2-0.4l1.1-1.2v1H17.3z"/>
	<path class="st0" d="M5.9,25.1c0.3,0.2,0.4,0.6,0.2,0.9c-0.6,1.1-0.9,2.3-0.9,3.5S5.6,32,6.2,33c0.2,0.3,0.1,0.7-0.2,0.9
		C5.9,33.9,5.8,34,5.6,34c-0.2,0-0.4-0.1-0.5-0.3C4.4,32.5,4,31,4,29.5c0-1.5,0.4-2.9,1.1-4.2C5.3,25,5.6,24.9,5.9,25.1z"/>
	<path class="st0" d="M2.9,22.3c0.3,0.2,0.4,0.6,0.2,0.9c-1.2,1.9-1.8,4-1.8,6.3s0.6,4.5,1.8,6.3c0.2,0.3,0.1,0.7-0.2,0.9
		c-0.1,0.1-0.2,0.1-0.4,0.1c-0.2,0-0.4-0.1-0.5-0.3c-1.3-2-2.1-4.5-2.1-7c0-2.5,0.7-4.9,2.1-7C2.2,22.2,2.6,22.1,2.9,22.3z"/>
</g>
</svg>
