<?xml version="1.0" encoding="utf-8"?>
<!-- Generator: Adobe Illustrator 24.1.1, SVG Export Plug-In . SVG Version: 6.00 Build 0)  -->
<svg version="1.1" id="Layer_1" xmlns="http://www.w3.org/2000/svg" xmlns:xlink="http://www.w3.org/1999/xlink" x="0px" y="0px"
	 viewBox="0 0 60 58" style="enable-background:new 0 0 60 58;" xml:space="preserve">
<style type="text/css">
	.st0{fill:#6F6F6F;}
</style>
<g>
	<path class="st0" d="M53.1,49c0,0.4,0.3,0.7,0.7,0.7h5.3c0.4,0,0.7-0.3,0.7-0.7c0-0.4-0.3-0.7-0.7-0.7h-5.3
		C53.4,48.3,53.1,48.6,53.1,49z"/>
	<path class="st0" d="M59.1,52.3H47.2c-0.4,0-0.7,0.3-0.7,0.7c0,0.4,0.3,0.7,0.7,0.7h11.9c0.4,0,0.7-0.3,0.7-0.7
		C59.8,52.6,59.5,52.3,59.1,52.3z"/>
	<path class="st0" d="M15.5,35.1c-0.4,0-0.7,0.3-0.7,0.7c0,0.4,0.3,0.7,0.7,0.7h13.3h28.6v-1.3H15.5z"/>
	<path class="st0" d="M52.5,6H34c-0.4,0-0.7,0.3-0.7,0.7c0,0.4,0.3,0.7,0.7,0.7h18.5c0.4,0,0.7-0.3,0.7-0.7C53.1,6.3,52.9,6,52.5,6z
		"/>
	<path class="st0" d="M51.8,30.5c0-0.4-0.3-0.7-0.7-0.7H7.5c-0.4,0-0.7,0.3-0.7,0.7c0,0.4,0.3,0.7,0.7,0.7h43.6
		C51.5,31.1,51.8,30.8,51.8,30.5z"/>
	<path class="st0" d="M12.8,27.2h33.1c0.4,0,0.7-0.3,0.7-0.7c0-0.4-0.3-0.7-0.7-0.7H12.8c-0.4,0-0.7,0.3-0.7,0.7
		C12.1,26.9,12.4,27.2,12.8,27.2z"/>
	<path class="st0" d="M45.3,56.2h-5.8l-3.4-11.4h18.8c2.1,0,3.8-1.7,3.8-3.8v-5.3c0,0.4-0.3,0.7-0.7,0.7h-0.7v4.7
		c0,1.4-1.1,2.5-2.5,2.5H35.2h-6.4H4.1c-1.4,0-2.5-1.1-2.5-2.5v-4.7h8.2c0.4,0,0.7-0.3,0.7-0.7c0-0.4-0.3-0.7-0.7-0.7H1.6V11.3h55.8
		V10H1.6V4.2c0-1.4,1.1-2.5,2.5-2.5h50.8c1.4,0,2.5,1.1,2.5,2.5V10h0.4c0.4,0,0.7,0.3,0.7,0.7c0,0.4-0.3,0.7-0.7,0.7h-0.4v23.8H58
		c0.4,0,0.7,0.3,0.7,0.7V10.6V4.2c0-2.1-1.7-3.8-3.8-3.8H4.1C2,0.4,0.3,2.1,0.3,4.2v6.2c0,0.1,0,0.1,0,0.2c0,0.1,0,0.1,0,0.2v25v5.3
		c0,2.1,1.7,3.8,3.8,3.8h17.5l-3.4,11.4h-5.8c-0.4,0-0.7,0.3-0.7,0.7c0,0.4,0.3,0.7,0.7,0.7h6.3H39h6.3c0.4,0,0.7-0.3,0.7-0.7
		C46,56.5,45.7,56.2,45.3,56.2z M19.6,56.2L23,44.9h11.7l3.4,11.4H19.6z"/>
	<polygon class="st0" points="38.8,22.5 40.1,17.3 40.1,17.3 41.4,22.5 43.2,22.5 45.2,14.6 43.7,14.6 42.5,19.6 42.4,19.9 
		42.4,19.9 41.1,14.6 39.4,14.6 38.1,19.9 38.1,19.9 38,19.5 36.8,14.6 35,14.6 37,22.5 	"/>
	<polygon class="st0" points="28.4,22.5 29.7,17.3 29.7,17.3 31,22.5 32.8,22.5 34.8,14.6 33.3,14.6 32.1,19.6 32,19.9 32,19.9 
		30.7,14.6 29,14.6 27.7,19.9 27.6,19.9 27.6,19.5 26.4,14.6 24.5,14.6 26.6,22.5 	"/>
	<path class="st0" d="M27.4,39.8c0,0.8,0.6,1.4,1.4,1.4c0.8,0,1.4-0.6,1.4-1.4c0-0.8-0.6-1.4-1.4-1.4C28,38.4,27.4,39,27.4,39.8z"/>
	<polygon class="st0" points="18,22.5 19.2,17.3 19.3,17.3 20.6,22.5 22.4,22.5 24.4,14.6 22.8,14.6 21.7,19.6 21.6,19.9 21.6,19.9 
		20.3,14.6 18.6,14.6 17.3,19.9 17.2,19.9 17.1,19.5 16,14.6 14.1,14.6 16.2,22.5 	"/>
	<rect x="12.8" y="5.3" class="st0" width="2.6" height="2.6"/>
	<path class="st0" d="M13.5,52.9c0-0.4-0.3-0.7-0.7-0.7H0.9c-0.4,0-0.7,0.3-0.7,0.7c0,0.4,0.3,0.7,0.7,0.7h11.9
		C13.2,53.6,13.5,53.3,13.5,52.9z"/>
	<rect x="8.8" y="5.3" class="st0" width="2.6" height="2.6"/>
	<rect x="4.9" y="5.3" class="st0" width="2.6" height="2.6"/>
	<path class="st0" d="M0.9,49.6h5.3c0.4,0,0.7-0.3,0.7-0.7c0-0.4-0.3-0.7-0.7-0.7H0.9c-0.4,0-0.7,0.3-0.7,0.7
		C0.2,49.3,0.5,49.6,0.9,49.6z"/>
</g>
</svg>
