<?xml version="1.0" encoding="utf-8"?>
<!-- Generator: Adobe Illustrator 24.1.1, SVG Export Plug-In . SVG Version: 6.00 Build 0)  -->
<svg version="1.1" id="Layer_1" xmlns="http://www.w3.org/2000/svg" xmlns:xlink="http://www.w3.org/1999/xlink" x="0px" y="0px"
	 viewBox="0 0 60 60" style="enable-background:new 0 0 60 60;" xml:space="preserve">
<style type="text/css">
	.st0{fill:#6F6F6F;}
</style>
<g>
	<path class="st0" d="M60,41.5v5.1c0,0.4-0.3,0.6-0.6,0.6h-5.1c-0.4,0-0.6-0.3-0.6-0.6v-1.9h0.6c0.3,0,0.6-0.3,0.6-0.6V46h3.8v-3.8
		h-3.8V44c0-0.4-0.3-0.6-0.6-0.6h-0.6v-1.9c0-0.3,0.3-0.6,0.6-0.6h5.1C59.7,40.9,60,41.1,60,41.5z"/>
	<path class="st0" d="M60,12.1v5.1c0,0.4-0.3,0.6-0.6,0.6h-5.1c-0.4,0-0.6-0.3-0.6-0.6v-1.9h0.6c0.3,0,0.6-0.3,0.6-0.6v1.9h3.8v-3.8
		h-3.8v1.9c0-0.4-0.3-0.6-0.6-0.6h-0.6v-1.9c0-0.4,0.3-0.6,0.6-0.6h5.1C59.7,11.5,60,11.8,60,12.1z"/>
	<path class="st0" d="M54.3,14c0.3,0,0.6,0.3,0.6,0.6s-0.3,0.6-0.6,0.6h-0.6V14H54.3z"/>
	<path class="st0" d="M54.3,43.4c0.3,0,0.6,0.3,0.6,0.6s-0.3,0.6-0.6,0.6h-0.6v-1.3H54.3z"/>
	<rect x="49.8" y="43.4" class="st0" width="3.8" height="1.3"/>
	<rect x="49.8" y="14" class="st0" width="3.8" height="1.3"/>
	<path class="st0" d="M49.8,44.7v10.7c0,2.5-2.1,4.6-4.6,4.6H14.8c-2.5,0-4.6-2.1-4.6-4.6V44.7h1.3v10.7c0,1.8,1.5,3.3,3.3,3.3H30
		h15.2c1.8,0,3.3-1.5,3.3-3.3V44.7H49.8z"/>
	<rect x="48.5" y="43.4" class="st0" width="1.3" height="1.3"/>
	<rect x="48.5" y="15.3" class="st0" width="1.3" height="28.1"/>
	<rect x="48.5" y="14" class="st0" width="1.3" height="1.3"/>
	<path class="st0" d="M49.8,4.6V14h-1.3V4.6c0-1.8-1.5-3.3-3.3-3.3H14.8c-1.8,0-3.3,1.5-3.3,3.3V14h-1.3V4.6c0-2.5,2.1-4.6,4.6-4.6
		h30.4C47.7,0,49.8,2.1,49.8,4.6z"/>
	<rect x="44.7" y="43.4" class="st0" width="3.8" height="1.3"/>
	<rect x="44.7" y="14" class="st0" width="3.8" height="1.3"/>
	<path class="st0" d="M44.7,44.7v4.5c0,0.4-0.3,0.6-0.6,0.6h-9.6c0.4,0,0.6-0.3,0.6-0.6s-0.3-0.6-0.6-0.6h8.9v-3.8H44.7z"/>
	<rect x="43.4" y="43.4" class="st0" width="1.3" height="1.3"/>
	<path class="st0" d="M44.7,26.2v17.2h-1.3V26.2c0,0.4,0.3,0.6,0.6,0.6S44.7,26.6,44.7,26.2z"/>
	<path class="st0" d="M44.7,15.3v10.9c0,0.4-0.3,0.6-0.6,0.6s-0.6-0.3-0.6-0.6v-0.1V15.3H44.7z"/>
	<rect x="43.4" y="14" class="st0" width="1.3" height="1.3"/>
	<path class="st0" d="M44.7,9.6V14h-1.3v-3.8H16.6V14h-1.3V9.6c0-0.4,0.3-0.6,0.6-0.6H44C44.4,8.9,44.7,9.2,44.7,9.6z"/>
	<path class="st0" d="M43.4,43.4v1.3h-3.2c-0.3,0-0.6-0.3-0.6-0.6s0.3-0.6,0.6-0.6H43.4z"/>
	<path class="st0" d="M43.4,14v1.3h-3.2c-0.3,0-0.6-0.3-0.6-0.6s0.3-0.6,0.6-0.6H43.4z"/>
	<path class="st0" d="M30,15.3c6,0,10.9,4.9,10.9,10.9C40.9,32.2,36,37,30,37c-6,0-10.9-4.9-10.9-10.9C19.1,20.2,24,15.3,30,15.3z
		 M39.6,26.2c0-5.3-4.3-9.6-9.6-9.6s-9.6,4.3-9.6,9.6s4.3,9.6,9.6,9.6S39.6,31.4,39.6,26.2z"/>
	<path class="st0" d="M36.8,25.1c0.2,0.2,0.2,0.7,0,0.9l-1.9,1.9c-0.1,0.1-0.3,0.2-0.5,0.2c-0.2,0-0.3-0.1-0.5-0.2
		c-0.2-0.2-0.2-0.7,0-0.9l1.5-1.5L34,24.1c-0.2-0.2-0.2-0.6,0-0.9c0.2-0.2,0.7-0.2,0.9,0L36.8,25.1z"/>
	<path class="st0" d="M34.5,48.5c0.4,0,0.6,0.3,0.6,0.6s-0.3,0.6-0.6,0.6H30H16c-0.4,0-0.6-0.3-0.6-0.6v-4.5h1.3v3.8H34.5z"/>
	<path class="st0" d="M34.5,41.5v1.3c0,0.4-0.3,0.6-0.6,0.6c-0.4,0-0.6-0.3-0.6-0.6v-1.3c0-0.3,0.3-0.6,0.6-0.6
		C34.2,40.9,34.5,41.1,34.5,41.5z"/>
	<path class="st0" d="M32.9,3.8c0.4,0,0.6,0.3,0.6,0.6c0,0.4-0.3,0.6-0.6,0.6h-6.7c-0.4,0-0.6-0.3-0.6-0.6c0-0.3,0.3-0.6,0.6-0.6
		H32.9z"/>
	<path class="st0" d="M31.4,20.4c0.3,0.1,0.5,0.5,0.4,0.8l-2.6,8.9c-0.1,0.3-0.3,0.5-0.6,0.5c-0.1,0-0.1,0-0.2,0
		c-0.3-0.1-0.5-0.5-0.4-0.8l2.6-8.9C30.8,20.6,31.1,20.4,31.4,20.4z"/>
	<circle class="st0" cx="30" cy="53.9" r="2.4"/>
	<path class="st0" d="M30.6,41.5v1.3c0,0.4-0.3,0.6-0.6,0.6s-0.6-0.3-0.6-0.6v-1.3c0-0.3,0.3-0.6,0.6-0.6S30.6,41.1,30.6,41.5z"/>
	<path class="st0" d="M26.8,41.5v1.3c0,0.4-0.3,0.6-0.6,0.6s-0.6-0.3-0.6-0.6v-1.3c0-0.3,0.3-0.6,0.6-0.6S26.8,41.1,26.8,41.5z"/>
	<path class="st0" d="M26,23.2c0.2,0.3,0.2,0.7,0,0.9l-1.5,1.5L26,27c0.2,0.2,0.2,0.7,0,0.9c-0.1,0.1-0.3,0.2-0.5,0.2
		c-0.2,0-0.3-0.1-0.5-0.2L23.2,26c-0.2-0.2-0.2-0.7,0-0.9l1.9-1.9C25.3,22.9,25.7,22.9,26,23.2z"/>
	<path class="st0" d="M19.8,14c0.4,0,0.6,0.3,0.6,0.6s-0.3,0.6-0.6,0.6h-3.2V14H19.8z"/>
	<path class="st0" d="M19.8,43.4c0.4,0,0.6,0.3,0.6,0.6s-0.3,0.6-0.6,0.6h-3.2v-1.3H19.8z"/>
	<rect x="15.3" y="43.4" class="st0" width="1.3" height="1.3"/>
	<polygon class="st0" points="16.6,26.2 16.6,43.4 15.3,43.4 15.3,15.3 16.6,15.3 	"/>
	<rect x="15.3" y="14" class="st0" width="1.3" height="1.3"/>
	<rect x="11.5" y="43.4" class="st0" width="3.8" height="1.3"/>
	<rect x="11.5" y="14" class="st0" width="3.8" height="1.3"/>
	<rect x="10.2" y="43.4" class="st0" width="1.3" height="1.3"/>
	<rect x="10.2" y="15.3" class="st0" width="1.3" height="28.1"/>
	<rect x="10.2" y="14" class="st0" width="1.3" height="1.3"/>
	<rect x="6.4" y="43.4" class="st0" width="3.8" height="1.3"/>
	<rect x="6.4" y="14" class="st0" width="3.8" height="1.3"/>
	<path class="st0" d="M6.4,44.7v1.9c0,0.4-0.3,0.6-0.6,0.6H0.6c-0.3,0-0.6-0.3-0.6-0.6v-5.1c0-0.3,0.3-0.6,0.6-0.6h5.1
		c0.4,0,0.6,0.3,0.6,0.6v1.9H5.7c-0.4,0-0.6,0.3-0.6,0.6v-1.9H1.3V46h3.8V44c0,0.4,0.3,0.6,0.6,0.6H6.4z"/>
	<path class="st0" d="M6.4,43.4v1.3H5.7c-0.4,0-0.6-0.3-0.6-0.6s0.3-0.6,0.6-0.6H6.4z"/>
	<path class="st0" d="M6.4,15.3v1.9c0,0.4-0.3,0.6-0.6,0.6H0.6c-0.3,0-0.6-0.3-0.6-0.6v-5.1c0-0.4,0.3-0.6,0.6-0.6h5.1
		c0.4,0,0.6,0.3,0.6,0.6V14H5.7c-0.4,0-0.6,0.3-0.6,0.6v-1.9H1.3v3.8h3.8v-1.9c0,0.4,0.3,0.6,0.6,0.6H6.4z"/>
	<path class="st0" d="M6.4,14v1.3H5.7c-0.4,0-0.6-0.3-0.6-0.6S5.4,14,5.7,14H6.4z"/>
</g>
</svg>
