<?xml version="1.0" encoding="utf-8"?>
<!-- Generator: Adobe Illustrator 24.1.1, SVG Export Plug-In . SVG Version: 6.00 Build 0)  -->
<svg version="1.1" id="Layer_2" xmlns="http://www.w3.org/2000/svg" xmlns:xlink="http://www.w3.org/1999/xlink" x="0px" y="0px"
	 viewBox="0 0 60 60" style="enable-background:new 0 0 60 60;" xml:space="preserve">
<style type="text/css">
	.st0{fill:#6E6E6E;}
	.st1{fill:#009688;}
</style>
<g>
	<path class="st0" d="M60,53v6.4c0,0.4-0.3,0.6-0.6,0.6H0.6C0.3,60,0,59.7,0,59.4V53c0,0.4,0.3,0.6,0.6,0.6h0.6v5.1h57.4v-5.1h0.6
		C59.7,53.6,60,53.3,60,53z"/>
	<path class="st0" d="M60,17.2V53c0-0.4-0.3-0.6-0.6-0.6h-0.6V17.9h0.6C59.7,17.9,60,17.6,60,17.2z"/>
	<path class="st0" d="M60,10.9v6.4c0-0.4-0.3-0.6-0.6-0.6h-0.6v-5.1h0.6C59.7,11.5,60,11.2,60,10.9z"/>
	<path class="st0" d="M60,5.7v5.1c0-0.4-0.3-0.6-0.6-0.6h-0.6V6.4h0.6C59.7,6.4,60,6.1,60,5.7z"/>
	<path class="st0" d="M60,0.6v5.1c0-0.3-0.3-0.6-0.6-0.6h-0.6V1.3H19.1V0.6c0-0.4-0.3-0.6-0.6-0.6h40.8C59.7,0,60,0.3,60,0.6z"/>
	<path class="st0" d="M59.4,5.1c0.4,0,0.6,0.3,0.6,0.6c0,0.4-0.3,0.6-0.6,0.6h-0.6V5.1H59.4z"/>
	<path class="st0" d="M59.4,10.2c0.4,0,0.6,0.3,0.6,0.6s-0.3,0.6-0.6,0.6h-0.6v-1.3H59.4z"/>
	<path class="st0" d="M59.4,16.6c0.4,0,0.6,0.3,0.6,0.6s-0.3,0.6-0.6,0.6h-0.6v-1.3H59.4z"/>
	<path class="st0" d="M59.4,52.3c0.4,0,0.6,0.3,0.6,0.6c0,0.4-0.3,0.6-0.6,0.6h-0.6v-1.3H59.4z"/>
	<rect x="1.3" y="52.3" class="st0" width="57.4" height="1.3"/>
	<path class="st0" d="M58.7,16.6v1.3H10.9c-0.4,0-0.6-0.3-0.6-0.6s0.3-0.6,0.6-0.6H58.7z"/>
	<path class="st0" d="M58.7,10.2v1.3H18.5c0.3,0,0.6-0.3,0.6-0.6v-0.6H58.7z"/>
	<path class="st0" d="M58.7,5.1v1.3H32.6c-0.4,0-0.6-0.3-0.6-0.6c0-0.3,0.3-0.6,0.6-0.6H58.7z"/>
	<path class="st0" d="M54.9,40.2v7.7c0,0.4-0.3,0.6-0.6,0.6H32.6c-0.4,0-0.6-0.3-0.6-0.6v-7.7c0-0.4,0.3-0.6,0.6-0.6h21.7
		C54.6,39.6,54.9,39.9,54.9,40.2z M53.6,47.2v-6.4H33.2v6.4H53.6z"/>
	<path class="st0" d="M54.9,28.7v7.7c0,0.4-0.3,0.6-0.6,0.6H32.6c-0.4,0-0.6-0.3-0.6-0.6v-7.7c0-0.4,0.3-0.6,0.6-0.6h21.7
		C54.6,28.1,54.9,28.4,54.9,28.7z M53.6,35.7v-6.4H33.2v6.4H53.6z"/>
	<rect x="42.8" y="42.8" class="st0" width="2.6" height="2.6"/>
	<rect x="42.8" y="31.3" class="st0" width="2.6" height="2.6"/>
	<rect x="38.9" y="42.8" class="st0" width="2.6" height="2.6"/>
	<rect x="38.9" y="31.3" class="st0" width="2.6" height="2.6"/>
	<rect x="35.1" y="42.8" class="st0" width="2.6" height="2.6"/>
	<rect x="35.1" y="31.3" class="st0" width="2.6" height="2.6"/>
	<path class="st0" d="M29.2,5.3c0.1,0.1,0.2,0.3,0.2,0.5c0,0.2-0.1,0.3-0.2,0.5c-0.1,0.1-0.3,0.2-0.5,0.2s-0.3-0.1-0.5-0.2
		c-0.1-0.1-0.2-0.3-0.2-0.5c0-0.2,0.1-0.3,0.2-0.5c0.1-0.1,0.3-0.2,0.5-0.2S29.1,5.2,29.2,5.3z"/>
	<path class="st0" d="M28.1,47.8C28.1,47.8,28.1,47.8,28.1,47.8c0,0.4-0.3,0.7-0.6,0.7H5.7c-0.4,0-0.6-0.3-0.6-0.6
		c0-5.1,3.5-9.4,8.3-10.5c0.9,0.6,2,1,3.2,1H16c-5.1,0-9.2,3.9-9.6,8.9h20.4c-0.3-5-4.5-8.9-9.6-8.9h-0.6c1.2,0,2.3-0.4,3.2-1
		C24.5,38.5,28.1,42.7,28.1,47.8z"/>
	<path class="st1" d="M26.8,47.2H6.4c0.3-5,4.5-8.9,9.6-8.9h0.6h0.6C22.3,38.3,26.5,42.2,26.8,47.2z"/>
	<path class="st0" d="M16.6,26.8c3.2,0,5.7,2.6,5.7,5.7c0,2-1,3.7-2.6,4.8C19,37.1,18.1,37,17.2,37h-0.6c2.5,0,4.5-2,4.5-4.5
		c0-2.5-2-4.5-4.5-4.5c-2.5,0-4.5,2-4.5,4.5c0,2.5,2,4.5,4.5,4.5H16c-0.9,0-1.7,0.1-2.6,0.3c-1.5-1-2.6-2.8-2.6-4.8
		C10.9,29.4,13.4,26.8,16.6,26.8z"/>
	<circle class="st1" cx="16.6" cy="32.6" r="4.5"/>
	<path class="st0" d="M19.1,10.2v0.6c0,0.4-0.3,0.6-0.6,0.6c-0.4,0-0.6-0.3-0.6-0.6v-0.6H19.1z"/>
	<rect x="17.9" y="1.3" class="st0" width="1.3" height="8.9"/>
	<path class="st0" d="M19.1,0.6v0.6h-1.3V0.6c0-0.4,0.3-0.6,0.6-0.6C18.9,0,19.1,0.3,19.1,0.6z"/>
	<path class="st0" d="M0.6,0h17.9c-0.4,0-0.6,0.3-0.6,0.6v0.6H1.3v8.9H0.6c-0.3,0-0.6,0.3-0.6,0.6V0.6C0,0.3,0.3,0,0.6,0z"/>
	<path class="st0" d="M18.5,11.5H1.3v-1.3h16.6v0.6C17.9,11.2,18.2,11.5,18.5,11.5z"/>
	<path class="st0" d="M17.2,37c0.9,0,1.7,0.1,2.5,0.3c-0.9,0.6-2,1-3.2,1s-2.3-0.4-3.2-1c0.8-0.2,1.7-0.3,2.6-0.3h0.6H17.2z"/>
	<rect x="12.1" y="4.5" class="st0" width="2.6" height="2.6"/>
	<rect x="8.3" y="4.5" class="st0" width="2.6" height="2.6"/>
	<path class="st0" d="M7.5,16.8c0.1,0.1,0.2,0.3,0.2,0.5c0,0.2-0.1,0.3-0.2,0.5c-0.1,0.1-0.3,0.2-0.5,0.2s-0.3-0.1-0.5-0.2
		c-0.1-0.1-0.2-0.3-0.2-0.5c0-0.2,0.1-0.3,0.2-0.5c0.1-0.1,0.3-0.2,0.5-0.2S7.4,16.7,7.5,16.8z"/>
	<rect x="4.5" y="4.5" class="st0" width="2.6" height="2.6"/>
	<path class="st0" d="M1.3,52.3v1.3H0.6C0.3,53.6,0,53.3,0,53c0-0.4,0.3-0.6,0.6-0.6H1.3z"/>
	<path class="st0" d="M1.3,11.5v40.8H0.6C0.3,52.3,0,52.6,0,53V10.9c0,0.4,0.3,0.6,0.6,0.6H1.3z"/>
	<path class="st0" d="M1.3,10.2v1.3H0.6c-0.3,0-0.6-0.3-0.6-0.6s0.3-0.6,0.6-0.6H1.3z"/>
</g>
</svg>
