<?xml version="1.0" encoding="utf-8"?>
<!-- Generator: Adobe Illustrator 24.1.1, SVG Export Plug-In . SVG Version: 6.00 Build 0)  -->
<svg version="1.1" id="Layer_1" xmlns="http://www.w3.org/2000/svg" xmlns:xlink="http://www.w3.org/1999/xlink" x="0px" y="0px"
	 viewBox="0 0 60 60" style="enable-background:new 0 0 60 60;" xml:space="preserve">
<style type="text/css">
	.st0{fill:#6E6E6E;}
	.st1{fill:#C0CA33;}
</style>
<g>
	<path class="st0" d="M60,17.2v31.9c0,0.4-0.3,0.6-0.6,0.6H40.6l-0.2-0.3c0.2-0.3,0.4-0.6,0.5-1h17.8V17.9h0.6
		C59.7,17.9,60,17.6,60,17.2z"/>
	<path class="st0" d="M60,10.9v6.4c0-0.4-0.3-0.6-0.6-0.6h-0.6v-5.1h0.6C59.7,11.5,60,11.2,60,10.9z"/>
	<path class="st0" d="M60,5.7v5.1c0-0.4-0.3-0.6-0.6-0.6h-0.6V6.4h0.6C59.7,6.4,60,6.1,60,5.7z"/>
	<path class="st0" d="M60,0.6v5.1c0-0.3-0.3-0.6-0.6-0.6h-0.6V1.3H19.1V0.6c0-0.4-0.3-0.6-0.6-0.6h40.9C59.7,0,60,0.3,60,0.6z"/>
	<path class="st0" d="M59.4,5.1c0.4,0,0.6,0.3,0.6,0.6c0,0.4-0.3,0.6-0.6,0.6h-0.6V5.1H59.4z"/>
	<path class="st0" d="M59.4,10.2c0.4,0,0.6,0.3,0.6,0.6s-0.3,0.6-0.6,0.6h-0.6v-1.3H59.4z"/>
	<path class="st0" d="M59.4,16.6c0.4,0,0.6,0.3,0.6,0.6s-0.3,0.6-0.6,0.6h-0.6v-1.3H59.4z"/>
	<path class="st0" d="M58.7,16.6v1.3H17.2c-0.4,0-0.6-0.3-0.6-0.6s0.3-0.6,0.6-0.6H58.7z"/>
	<path class="st0" d="M58.7,10.2v1.3H18.5c0.4,0,0.6-0.3,0.6-0.6v-0.6H58.7z"/>
	<path class="st0" d="M58.7,5.1v1.3H32.6c-0.4,0-0.6-0.3-0.6-0.6c0-0.3,0.3-0.6,0.6-0.6H58.7z"/>
	<rect x="53" y="21.1" class="st0" width="2.6" height="2.5"/>
	<rect x="49.1" y="21.1" class="st0" width="2.6" height="2.5"/>
	<rect x="45.3" y="21.1" class="st0" width="2.6" height="2.5"/>
	<path class="st0" d="M46.5,41.6v3.1c0,0.3-0.2,0.6-0.5,0.6l-4.2,0.9c-0.2,0.6-0.3,1.1-0.6,1.7c-0.1,0.2-0.2,0.4-0.3,0.6
		c-0.2,0.3-0.3,0.7-0.5,1l0.2,0.3h-0.7c-0.2,0-0.4-0.1-0.5-0.3c-0.1-0.2-0.1-0.5,0-0.6c0.1-0.1,0.1-0.2,0.2-0.3
		c0.1-0.1,0.1-0.2,0.2-0.3c0.1-0.2,0.2-0.4,0.3-0.5c0-0.1,0.1-0.2,0.1-0.3c0.1-0.2,0.2-0.5,0.3-0.7c0.1-0.2,0.2-0.5,0.2-0.7
		c0-0.1,0.1-0.2,0.1-0.3c0-0.1,0.1-0.2,0.2-0.3c0.1-0.1,0.2-0.2,0.3-0.2l4.1-0.9v-2.1l-4.1-0.9c-0.1,0-0.2-0.1-0.3-0.2
		c-0.1-0.1-0.1-0.2-0.2-0.3c-0.2-0.9-0.5-1.9-1-2.7c-0.2-0.3-0.3-0.6-0.5-0.8c-0.1-0.2-0.1-0.5,0-0.7l2.3-3.6l-1.5-1.5l-3.6,2.3
		c-0.2,0.1-0.5,0.1-0.7,0c-1.1-0.7-2.3-1.2-3.6-1.5c-0.1,0-0.2-0.1-0.3-0.2c0,0-0.1-0.1-0.1-0.1c0-0.1-0.1-0.1-0.1-0.2l-0.9-4.1
		h-2.1l-0.9,4.1c-0.1,0.2-0.2,0.4-0.5,0.5c-1.3,0.3-2.5,0.8-3.6,1.5c-0.2,0.1-0.5,0.1-0.7,0l-3.6-2.3l-1.5,1.5h0l2.1,3.3l0.2,0.3
		c0.1,0.2,0.1,0.5,0,0.7c-0.7,1.1-1.2,2.3-1.5,3.6c-0.1,0.2-0.2,0.4-0.5,0.5L14,42.1v2.1l4.1,0.9c0.2,0.1,0.4,0.2,0.5,0.5
		c0,0.1,0.1,0.2,0.1,0.4c0,0.2,0.1,0.4,0.2,0.6c0.1,0.3,0.2,0.6,0.3,0.8c0.1,0.3,0.2,0.5,0.3,0.8c0.1,0.2,0.2,0.3,0.2,0.5
		c0,0.1,0.1,0.2,0.1,0.2c0.1,0.2,0.1,0.4,0,0.6c-0.1,0.2-0.3,0.3-0.6,0.3h-0.7l0.2-0.3c-0.3-0.5-0.5-1-0.8-1.5c0,0,0,0,0,0
		c-0.1-0.3-0.2-0.5-0.3-0.8c0-0.1-0.1-0.2-0.1-0.3c-0.1-0.2-0.1-0.3-0.2-0.5l-4.3-0.9c-0.3-0.1-0.5-0.3-0.5-0.6v-3.1
		c0-0.3,0.2-0.6,0.5-0.6l4.3-0.9c0.3-1.1,0.7-2.2,1.3-3.2l-2.3-3.7c-0.2-0.3-0.1-0.6,0.1-0.8l2.2-2.2c0.2-0.2,0.5-0.2,0.8-0.1
		l3.7,2.3c1-0.6,2.1-1,3.2-1.3l0.9-4.3c0.1-0.3,0.3-0.5,0.6-0.5h3.1c0.3,0,0.6,0.2,0.6,0.5l0.9,4.3c1.1,0.3,2.2,0.7,3.2,1.3l3.7-2.3
		c0.3-0.2,0.6-0.1,0.8,0.1l2.2,2.2c0.2,0.2,0.2,0.5,0.1,0.8l-2.3,3.7c0.6,1,1,2.1,1.3,3.2L46,41C46.3,41,46.5,41.3,46.5,41.6z"/>
	<path class="st1" d="M45.2,42.1v2.1l-4.1,0.9c-0.1,0-0.2,0.1-0.3,0.2c-0.1,0.1-0.2,0.2-0.2,0.3c0,0.1-0.1,0.2-0.1,0.3
		c-0.1,0.2-0.1,0.5-0.2,0.7c-0.1,0.2-0.2,0.5-0.3,0.7c0,0.1-0.1,0.2-0.1,0.3c-0.1,0.2-0.2,0.4-0.3,0.5c0,0.1-0.1,0.2-0.2,0.3
		c-0.1,0.2-0.2,0.5-0.4,0.7c-0.1,0.2-0.1,0.5,0,0.7l2.3,3.6l-1.5,1.5l-3.6-2.3c-0.2-0.1-0.5-0.1-0.7,0c-1.1,0.7-2.3,1.2-3.6,1.5
		c-0.2,0.1-0.4,0.2-0.5,0.5l-0.9,4.1h-2.1l-0.9-4.1c-0.1-0.2-0.2-0.4-0.5-0.5c-1.3-0.3-2.5-0.8-3.6-1.5c-0.2-0.1-0.5-0.1-0.7,0
		l-3.6,2.3l-1.5-1.5l2.3-3.6c0.1-0.2,0.1-0.5,0-0.7c-0.1-0.2-0.2-0.4-0.3-0.6c-0.1-0.2-0.2-0.3-0.2-0.5c-0.1-0.2-0.2-0.5-0.3-0.8
		c-0.1-0.3-0.2-0.5-0.3-0.8c-0.1-0.2-0.1-0.4-0.2-0.6c0-0.1-0.1-0.2-0.1-0.4c-0.1-0.2-0.2-0.4-0.5-0.5L14,44.2v-2.1l4.1-0.9
		c0.2-0.1,0.4-0.2,0.5-0.5c0.3-1.3,0.8-2.5,1.5-3.6c0.1-0.2,0.1-0.5,0-0.7l-0.2-0.3l-2.1-3.3l1.5-1.5l3.6,2.3c0.2,0.1,0.5,0.1,0.7,0
		c1.1-0.7,2.3-1.2,3.6-1.5c0.2-0.1,0.4-0.2,0.5-0.5l0.9-4.1h2.1l0.9,4.1c0,0.1,0,0.1,0.1,0.2c0,0.1,0.1,0.1,0.1,0.1
		c0.1,0.1,0.2,0.2,0.3,0.2c1.3,0.3,2.5,0.8,3.6,1.5c0.2,0.1,0.5,0.1,0.7,0l3.6-2.3l1.5,1.5l-2.3,3.6c-0.1,0.2-0.1,0.5,0,0.7
		c0.2,0.3,0.3,0.6,0.5,0.8c0.5,0.9,0.8,1.8,1,2.7c0,0.1,0.1,0.2,0.2,0.3c0.1,0.1,0.2,0.2,0.3,0.2L45.2,42.1z M37.4,43.2
		c0,0,0-0.1,0-0.1c-0.1-4.2-3.5-7.7-7.8-7.7c-4.3,0-7.8,3.5-7.8,7.8c0,4.3,3.5,7.8,7.8,7.8c4.2,0,7.7-3.4,7.8-7.6
		C37.4,43.2,37.4,43.2,37.4,43.2z"/>
	<path class="st0" d="M42.7,53.2c0.2,0.3,0.1,0.6-0.1,0.8l-2.2,2.2c-0.2,0.2-0.5,0.2-0.8,0.1L36,53.9c-1,0.6-2.1,1-3.2,1.3l-0.9,4.2
		c-0.1,0.3-0.3,0.5-0.6,0.5h-3.1c-0.3,0-0.6-0.2-0.6-0.5l-0.9-4.2c-1.1-0.3-2.2-0.7-3.2-1.3l-3.7,2.3c-0.2,0.2-0.6,0.1-0.8-0.1
		L16.6,54c-0.2-0.2-0.2-0.5-0.1-0.8l2.1-3.4h0.7c0.2,0,0.4-0.1,0.6-0.3c0.1-0.2,0.1-0.5,0-0.6c0-0.1-0.1-0.2-0.1-0.2
		c0.1,0.2,0.2,0.4,0.3,0.6c0.1,0.2,0.1,0.5,0,0.7l-2.3,3.6l1.5,1.5l3.6-2.3c0.2-0.1,0.5-0.1,0.7,0c1.1,0.7,2.3,1.2,3.6,1.5
		c0.2,0.1,0.4,0.2,0.5,0.5l0.9,4.1h2.1l0.9-4.1c0.1-0.2,0.2-0.4,0.5-0.5c1.3-0.3,2.5-0.8,3.6-1.5c0.2-0.1,0.5-0.1,0.7,0l3.6,2.3
		l1.5-1.5l-2.3-3.6c-0.1-0.2-0.1-0.5,0-0.7c0.1-0.2,0.3-0.4,0.4-0.7c-0.1,0.1-0.1,0.2-0.2,0.3c-0.1,0.2-0.1,0.4,0,0.6
		c0.1,0.2,0.3,0.3,0.5,0.3h0.7L42.7,53.2z"/>
	<path class="st0" d="M40.9,48.5c0.1-0.2,0.2-0.4,0.3-0.6C41.1,48.1,41,48.3,40.9,48.5z"/>
	<path class="st0" d="M40.6,40.7c0,0.1,0.1,0.2,0.2,0.3C40.7,40.9,40.6,40.8,40.6,40.7c-0.2-0.9-0.5-1.9-1-2.7
		C40,38.8,40.4,39.8,40.6,40.7z"/>
	<path class="st0" d="M40.7,45.3c-0.1,0.1-0.1,0.2-0.2,0.3c0,0.1-0.1,0.2-0.1,0.3c0-0.1,0.1-0.2,0.1-0.3
		C40.6,45.5,40.7,45.4,40.7,45.3z"/>
	<path class="st0" d="M40,47.4c0.1-0.2,0.2-0.5,0.3-0.7C40.2,46.9,40.1,47.1,40,47.4z"/>
	<path class="st0" d="M39.6,48.2c0.1-0.2,0.2-0.4,0.3-0.5C39.8,47.8,39.7,48,39.6,48.2z"/>
	<path class="st0" d="M37.4,43c0,0,0,0.1,0,0.1s0,0.1,0,0.1c-0.1,0.3-0.3,0.5-0.6,0.5h-0.7c0-0.2,0-0.4,0-0.6c0-0.2,0-0.4,0-0.6h0.7
		C37.1,42.5,37.3,42.7,37.4,43z"/>
	<path class="st0" d="M37.4,43c-0.1-0.3-0.3-0.5-0.6-0.5h-0.7c-0.3-3.3-3.1-5.9-6.5-5.9c-3.6,0-6.5,2.9-6.5,6.5
		c0,3.6,2.9,6.5,6.5,6.5c3.4,0,6.1-2.6,6.5-5.9h0.7c0.3,0,0.6-0.2,0.6-0.5c-0.1,4.2-3.5,7.6-7.8,7.6c-4.3,0-7.8-3.5-7.8-7.8
		c0-4.3,3.5-7.8,7.8-7.8C33.9,35.4,37.3,38.8,37.4,43z"/>
	<path class="st0" d="M36.1,42.5c0,0.2,0,0.4,0,0.6c0,0.2,0,0.4,0,0.6h-3.5c-0.1,0-0.2,0-0.3-0.1c0-0.2,0.1-0.4,0.1-0.5
		s0-0.4-0.1-0.5c0.1-0.1,0.2-0.1,0.3-0.1H36.1z"/>
	<path class="st0" d="M32.2,42.6c0,0.2,0.1,0.4,0.1,0.5s0,0.4-0.1,0.5c-0.2-0.1-0.3-0.3-0.3-0.5C31.9,42.9,32,42.7,32.2,42.6z"/>
	<path class="st0" d="M32.2,42.6c-0.2,0.1-0.3,0.3-0.3,0.5c0,0.2,0.1,0.4,0.3,0.5c-0.3,1.2-1.3,2.1-2.6,2.1c-1.5,0-2.7-1.2-2.7-2.7
		s1.2-2.7,2.7-2.7C30.9,40.5,32,41.4,32.2,42.6z M31,43.1c0-0.8-0.6-1.4-1.4-1.4c-0.8,0-1.4,0.6-1.4,1.4c0,0.8,0.6,1.4,1.4,1.4
		C30.4,44.5,31,43.9,31,43.1z"/>
	<path class="st0" d="M31.6,31.9c0,0,0.1,0.1,0.1,0.1C31.7,32,31.7,31.9,31.6,31.9z"/>
	<path class="st0" d="M29.2,5.3c0.1,0.1,0.2,0.3,0.2,0.5c0,0.2-0.1,0.3-0.2,0.5c-0.1,0.1-0.3,0.2-0.5,0.2s-0.3-0.1-0.5-0.2
		c-0.1-0.1-0.2-0.3-0.2-0.5c0-0.2,0.1-0.3,0.2-0.5c0.1-0.1,0.3-0.2,0.5-0.2S29.1,5.2,29.2,5.3z"/>
	<polygon class="st0" points="17.9,32.9 19.9,36.1 17.9,32.9 	"/>
	<path class="st0" d="M19.6,48.1c0.1,0.2,0.2,0.3,0.2,0.5C19.7,48.4,19.6,48.3,19.6,48.1z"/>
	<path class="st0" d="M18.9,46.5c0.1,0.3,0.2,0.6,0.3,0.8C19.1,47.1,19,46.8,18.9,46.5z"/>
	<path class="st0" d="M19.1,10.2v0.6c0,0.4-0.3,0.6-0.6,0.6c-0.3,0-0.6-0.3-0.6-0.6v-0.6H19.1z"/>
	<rect x="17.9" y="1.3" class="st0" width="1.3" height="8.9"/>
	<path class="st0" d="M19.1,0.6v0.6h-1.3V0.6c0-0.4,0.3-0.6,0.6-0.6C18.9,0,19.1,0.3,19.1,0.6z"/>
	<path class="st0" d="M18.8,46c0,0.2,0.1,0.4,0.2,0.6C18.8,46.3,18.8,46.2,18.8,46z"/>
	<path class="st0" d="M18.8,49.5l-0.2,0.3h-18c-0.4,0-0.6-0.3-0.6-0.6V17.2c0,0.4,0.3,0.6,0.6,0.6h0.6v30.6h17
		c-0.1-0.2-0.2-0.4-0.2-0.5C18.3,48.5,18.6,49,18.8,49.5z"/>
	<path class="st0" d="M0.6,0h17.9c-0.3,0-0.6,0.3-0.6,0.6v0.6H1.3v8.9H0.6c-0.3,0-0.6,0.3-0.6,0.6V0.6C0,0.3,0.3,0,0.6,0z"/>
	<path class="st0" d="M18.5,11.5H1.3v-1.3h16.6v0.6C17.9,11.2,18.2,11.5,18.5,11.5z"/>
	<path class="st0" d="M17.8,47.1c0.1,0.3,0.2,0.5,0.3,0.8C18,47.7,17.8,47.4,17.8,47.1z"/>
	<path class="st0" d="M17.7,46.8c0,0.1,0.1,0.2,0.1,0.3C17.7,47,17.7,46.9,17.7,46.8z"/>
	<rect x="12.1" y="4.5" class="st0" width="2.6" height="2.6"/>
	<path class="st0" d="M10.9,16.6c0.4,0,0.6,0.3,0.6,0.6s-0.3,0.6-0.6,0.6H1.3v-1.3H10.9z"/>
	<rect x="8.3" y="4.5" class="st0" width="2.6" height="2.6"/>
	<rect x="4.5" y="4.5" class="st0" width="2.6" height="2.6"/>
	<path class="st0" d="M1.3,16.6v1.3H0.6c-0.3,0-0.6-0.3-0.6-0.6s0.3-0.6,0.6-0.6H1.3z"/>
	<path class="st0" d="M1.3,11.5v5.1H0.6c-0.3,0-0.6,0.3-0.6,0.6v-6.4c0,0.4,0.3,0.6,0.6,0.6H1.3z"/>
	<path class="st0" d="M1.3,10.2v1.3H0.6c-0.3,0-0.6-0.3-0.6-0.6s0.3-0.6,0.6-0.6H1.3z"/>
</g>
</svg>
