<?xml version="1.0" encoding="utf-8"?>
<!-- Generator: Adobe Illustrator 24.1.1, SVG Export Plug-In . SVG Version: 6.00 Build 0)  -->
<svg version="1.1" id="Layer_1" xmlns="http://www.w3.org/2000/svg" xmlns:xlink="http://www.w3.org/1999/xlink" x="0px" y="0px"
	 viewBox="0 0 60 60" style="enable-background:new 0 0 60 60;" xml:space="preserve">
<style type="text/css">
	.st0{fill:#6E6E6E;}
	.st1{fill:#C0CA33;}
</style>
<g>
	<path class="st0" d="M60.2,30c0-0.4-0.3-0.7-0.7-0.7h-0.7c-0.1-4.7-1.3-9.1-3.4-12.9c0.2-0.1,0.4-0.2,0.6-0.4
		c0.3-0.2,0.4-0.6,0.2-0.9C58.8,19.6,60.2,24.7,60.2,30z"/>
	<path class="st0" d="M59.5,29.4c0.4,0,0.7,0.3,0.7,0.7s-0.3,0.7-0.7,0.7h-0.7c0-0.2,0-0.4,0-0.7s0-0.4,0-0.7H59.5z"/>
	<path class="st0" d="M59.5,30.7c0.4,0,0.7-0.3,0.7-0.7c0,8-3.1,15.6-8.8,21.2c-3.5,3.5-7.7,6-12.3,7.5h-1c2.6-0.7,5.1-1.8,7.4-3.1
		c4.5-2.7,8.2-6.5,10.8-11c0.2-0.3,0.1-0.7-0.2-0.9c-0.2-0.1-0.3-0.2-0.5-0.3c2-3.8,3.2-8.1,3.3-12.7H59.5z"/>
	<path class="st0" d="M58.8,29.4c0,0.2,0,0.4,0,0.7s0,0.4,0,0.7H48c-0.4,0-0.7-0.3-0.7-0.7s0.3-0.7,0.7-0.7H58.8z"/>
	<path class="st0" d="M58.7,58.7c0.4,0,0.7,0.3,0.7,0.7c0,0.4-0.3,0.7-0.7,0.7H30.1c3.1,0,6.1-0.4,8.9-1.3H58.7z"/>
	<path class="st0" d="M58,2v4c0,0.4-0.3,0.7-0.7,0.7S56.7,6.3,56.7,6V2.6h-3.3c-0.4,0-0.7-0.3-0.7-0.7c0-0.4,0.3-0.7,0.7-0.7h4
		C57.7,1.3,58,1.6,58,2z"/>
	<path class="st0" d="M56.3,15.1c0.2,0.3,0.1,0.7-0.2,0.9c-0.2,0.1-0.4,0.3-0.6,0.4c-0.2-0.4-0.4-0.8-0.7-1.2c0,0,0,0,0,0
		c0,0,0-0.1-0.1-0.1c-0.2-0.4-0.5-0.8-0.7-1.2c-1-1.5-2.2-3-3.5-4.3c-0.3-0.3-0.6-0.6-1-0.9c0,0,0,0,0,0c-0.3-0.3-0.7-0.6-1-0.9
		c-1.3-1.1-2.7-2.1-4.2-2.9c-0.2-0.1-0.5-0.3-0.7-0.4c-0.5-0.3-1.1-0.6-1.7-0.8c-0.3-0.1-0.5-0.2-0.8-0.3c-0.6-0.2-1.1-0.5-1.7-0.6
		c-0.6-0.2-1.1-0.4-1.7-0.5c-0.4-0.1-0.8-0.2-1.1-0.3c-0.2-0.1-0.5-0.1-0.7-0.2h0C34,0.6,32.2,0,30.3,0c0,0-0.1,0-0.1,0
		c0.4,0,0.9,0,1.4,0c0.9,0,1.9,0.1,2.8,0.2c0.2,0,0.4,0.1,0.6,0.1c0.3,0,0.6,0.1,0.8,0.2c0.5,0.1,1,0.2,1.4,0.3
		c0.3,0.1,0.7,0.2,1,0.2c0.3,0.1,0.5,0.1,0.8,0.2c0.1,0,0.1,0,0.2,0.1c0.4,0.1,0.8,0.2,1.2,0.4c0.1,0,0.2,0.1,0.3,0.1c0,0,0,0,0.1,0
		c0.2,0.1,0.4,0.1,0.6,0.2c0.2,0.1,0.4,0.2,0.6,0.2c0.6,0.3,1.2,0.5,1.8,0.8c0,0,0,0,0,0c0.3,0.1,0.6,0.3,0.9,0.5
		c0.3,0.2,0.7,0.4,1,0.6c0.1,0.1,0.3,0.2,0.4,0.3c0.3,0.2,0.6,0.4,0.9,0.6c0.4,0.3,0.8,0.5,1.1,0.8c0.3,0.2,0.6,0.4,0.9,0.7
		c0.1,0.1,0.2,0.2,0.3,0.3c0.3,0.3,0.6,0.5,0.9,0.8C50.6,8,51,8.4,51.4,8.8c0.1,0.1,0.1,0.1,0.2,0.2c0.3,0.3,0.6,0.6,0.8,0.9
		c0,0,0,0,0,0c0.3,0.3,0.5,0.6,0.7,0.8c0.3,0.4,0.7,0.8,1,1.2c0.2,0.3,0.4,0.5,0.6,0.8c0.2,0.3,0.4,0.5,0.6,0.8
		c0.2,0.3,0.4,0.5,0.5,0.8C55.9,14.6,56.1,14.9,56.3,15.1z"/>
	<path class="st0" d="M56,43.7c0.3,0.2,0.4,0.6,0.2,0.9c-2.6,4.5-6.3,8.3-10.8,11c-2.3,1.4-4.8,2.4-7.4,3.1h-3.2
		c0.3-0.2,0.6-0.3,0.9-0.6c8.6-1.7,15.8-7.2,19.8-14.8C55.7,43.5,55.9,43.6,56,43.7z"/>
	<path class="st0" d="M56.3,15.1c-0.2-0.3-0.3-0.6-0.5-0.8C55.9,14.6,56.1,14.9,56.3,15.1z"/>
	<path class="st0" d="M54.7,15.3c0.2,0.4,0.5,0.8,0.7,1.2c-3.1,1.9-6.5,3.4-10.1,4.5c-0.1-0.4-0.2-0.9-0.2-1.3
		C48.5,18.5,51.8,17.1,54.7,15.3z"/>
	<path class="st0" d="M55.2,13.5c-0.2-0.3-0.4-0.5-0.6-0.8C54.9,12.9,55.1,13.2,55.2,13.5z"/>
	<path class="st0" d="M54.7,15.1c0,0,0.1,0.1,0.1,0.1c0,0,0,0,0,0C54.7,15.2,54.7,15.2,54.7,15.1z"/>
	<path class="st1" d="M54.7,15.1c0,0,0.1,0.1,0.1,0.1c-2.9,1.8-6.2,3.3-9.7,4.4c-1.6-8.3-5-14.8-9.4-17.8c0.2,0,0.5,0.1,0.7,0.2
		c0.4,0.1,0.8,0.2,1.1,0.3c0.6,0.2,1.1,0.3,1.7,0.5C39.8,3,40.4,3.2,41,3.4c0.3,0.1,0.5,0.2,0.8,0.3c0.6,0.2,1.1,0.5,1.7,0.8
		c0.2,0.1,0.5,0.2,0.7,0.4c1.5,0.8,2.9,1.8,4.2,2.9c0.3,0.3,0.7,0.6,1,0.9c0,0,0,0,0,0c0.3,0.3,0.6,0.6,1,0.9
		c1.3,1.3,2.5,2.7,3.5,4.3C54.2,14.4,54.4,14.7,54.7,15.1z"/>
	<path class="st0" d="M54.7,15.1c-0.2-0.4-0.5-0.8-0.7-1.2C54.2,14.4,54.5,14.7,54.7,15.1z"/>
	<path class="st0" d="M54.7,12.7c-0.2-0.3-0.4-0.5-0.6-0.8C54.3,12.1,54.5,12.4,54.7,12.7z"/>
	<path class="st0" d="M53.1,10.7c-0.2-0.3-0.5-0.6-0.7-0.8C52.7,10.1,52.9,10.4,53.1,10.7z"/>
	<path class="st0" d="M52.4,9.8c-0.3-0.3-0.6-0.6-0.8-0.9C51.8,9.2,52.1,9.5,52.4,9.8z"/>
	<path class="st0" d="M53.9,14c-1-1.5-2.2-3-3.5-4.3C51.7,11,52.9,12.4,53.9,14z"/>
	<path class="st0" d="M55.5,43.4c-4,7.5-11.2,13.1-19.8,14.8c0.2-0.1,0.3-0.2,0.5-0.4c7.7-1.7,14.4-6.4,18.5-13.3
		c-2.9-1.8-6.2-3.3-9.7-4.4c0.1-0.4,0.2-0.9,0.2-1.3C49,40,52.4,41.5,55.5,43.4z"/>
	<path class="st0" d="M50.4,9.7c-0.3-0.3-0.6-0.6-1-0.9C49.8,9.1,50.1,9.4,50.4,9.7z"/>
	<path class="st0" d="M50.2,7.6c-0.3-0.3-0.6-0.5-0.9-0.8C49.5,7.1,49.9,7.3,50.2,7.6z"/>
	<path class="st0" d="M49.4,8.8c-0.3-0.3-0.7-0.6-1-0.9C48.8,8.2,49.1,8.5,49.4,8.8z"/>
	<path class="st0" d="M48.9,6.5c-0.3-0.2-0.6-0.5-0.9-0.7C48.3,6.1,48.6,6.3,48.9,6.5z"/>
	<path class="st0" d="M48,5.8c-0.4-0.3-0.8-0.6-1.1-0.8C47.2,5.3,47.6,5.6,48,5.8z"/>
	<path class="st1" d="M45.1,40.2c3.5,1.1,6.7,2.5,9.7,4.4c-4.1,6.9-10.9,11.6-18.5,13.3c1.5-1.2,2.9-2.8,4.2-4.8
		C42.5,49.6,44.2,45.1,45.1,40.2z"/>
	<path class="st0" d="M46,4.5c-0.1-0.1-0.3-0.2-0.4-0.3C45.7,4.3,45.8,4.4,46,4.5z"/>
	<path class="st0" d="M45.8,25.2c0,0.4-0.2,0.7-0.6,0.7c0,0,0,0-0.1,0c-0.3,0-0.6-0.3-0.7-0.6c-0.1-1.3-0.3-2.7-0.5-3.9
		c0.4-0.1,0.9-0.2,1.3-0.4C45.5,22.3,45.7,23.7,45.8,25.2z"/>
	<path class="st0" d="M45.1,35.2c0.4,0,0.6,0.4,0.6,0.7c-0.1,1-0.2,1.9-0.4,2.9c-0.4-0.1-0.9-0.3-1.3-0.4c0.1-0.9,0.3-1.7,0.3-2.6
		C44.4,35.5,44.8,35.2,45.1,35.2z"/>
	<path class="st0" d="M44,38.4c0.4,0.1,0.9,0.2,1.3,0.4c-0.1,0.4-0.1,0.9-0.2,1.3c-0.4-0.1-0.9-0.3-1.3-0.4
		C43.9,39.3,44,38.9,44,38.4z"/>
	<path class="st0" d="M45.3,21c-0.4,0.1-0.9,0.3-1.3,0.4c-0.1-0.4-0.2-0.9-0.2-1.3c0.4-0.1,0.9-0.2,1.3-0.4
		C45.1,20.1,45.2,20.5,45.3,21z"/>
	<path class="st0" d="M45.1,19.6c-0.4,0.1-0.9,0.3-1.3,0.4c-0.9-4.6-2.4-8.7-4.3-12C37,4,34,1.6,30.8,1.3v0c0.2,0,0.4,0,0.6,0
		c0,0,0.1,0,0.1,0c0.2,0,0.4,0,0.6,0c1.3,0.1,2.5,0.2,3.7,0.5h0C40,4.9,43.5,11.3,45.1,19.6z"/>
	<path class="st0" d="M43.8,39.8c0.4,0.1,0.9,0.2,1.3,0.4c-0.9,5-2.6,9.5-4.7,12.9c-1.3,2-2.7,3.6-4.2,4.8c-1.2,0.3-2.5,0.5-3.8,0.6
		C37.6,56.7,42,49.6,43.8,39.8z"/>
	<path class="st0" d="M44.6,3.7c-0.3-0.2-0.6-0.3-0.9-0.5C44,3.3,44.3,3.5,44.6,3.7z"/>
	<path class="st0" d="M44.2,5c-0.2-0.1-0.5-0.3-0.7-0.4C43.7,4.7,43.9,4.8,44.2,5z"/>
	<path class="st0" d="M30.1,36.6c4.8,0,9.5,0.7,13.9,1.9c-0.1,0.4-0.1,0.9-0.2,1.3c-4.1-1.2-8.5-1.8-13-1.9v-0.7
		C30.8,36.9,30.5,36.6,30.1,36.6z"/>
	<polygon class="st0" points="44,27 42.3,34 40.7,34 39.5,29.4 39.5,29.4 38.4,34 36.8,34 35,27 36.7,27 37.7,31.4 37.7,31.7 
		37.8,31.7 38.9,27 40.4,27 41.6,31.7 41.6,31.7 41.7,31.4 42.7,27 	"/>
	<path class="st0" d="M44,21.3c-4.4,1.2-9.1,1.9-13.9,1.9c0.4,0,0.7-0.3,0.7-0.7v-0.7c4.5,0,8.8-0.7,13-1.9
		C43.8,20.4,43.9,20.9,44,21.3z"/>
	<path class="st0" d="M41.9,2.3c0.6,0.2,1.2,0.5,1.8,0.8C43.1,2.9,42.5,2.6,41.9,2.3z"/>
	<path class="st0" d="M41.9,2.3c-0.2-0.1-0.4-0.2-0.6-0.2C41.5,2.2,41.7,2.3,41.9,2.3z"/>
	<path class="st0" d="M41.8,3.8c-0.3-0.1-0.5-0.2-0.8-0.3C41.3,3.5,41.5,3.7,41.8,3.8z"/>
	<path class="st0" d="M41.3,2.1c-0.2-0.1-0.4-0.2-0.6-0.2C40.9,1.9,41.1,2,41.3,2.1z"/>
	<path class="st0" d="M40.6,1.8c-0.1,0-0.2-0.1-0.3-0.1C40.4,1.7,40.5,1.8,40.6,1.8z"/>
	<path class="st0" d="M38.1,58.7h1c-2.9,0.9-5.9,1.3-8.9,1.3c0.8,0,1.7-0.1,2.5-0.4C34.5,59.5,36.3,59.2,38.1,58.7z"/>
	<path class="st0" d="M39,1.3c-0.1,0-0.1,0-0.2-0.1C38.9,1.3,39,1.3,39,1.3z"/>
	<path class="st0" d="M37.6,2.3c0.6,0.1,1.1,0.3,1.7,0.5C38.7,2.6,38.1,2.4,37.6,2.3z"/>
	<path class="st0" d="M38.1,1c-0.3-0.1-0.7-0.2-1-0.2C37.4,0.9,37.8,0.9,38.1,1z"/>
	<path class="st0" d="M34.8,58.7h3.2c-1.8,0.5-3.6,0.8-5.4,1C33.4,59.5,34.1,59.2,34.8,58.7z"/>
	<path class="st0" d="M36.4,2c-0.2-0.1-0.5-0.1-0.7-0.2C35.9,1.9,36.2,1.9,36.4,2z"/>
	<path class="st0" d="M36.2,57.8c-0.2,0.1-0.3,0.3-0.5,0.4c-1.6,0.3-3.2,0.5-4.9,0.5v0c0.5-0.1,1.1-0.2,1.6-0.3
		C33.7,58.3,35,58.1,36.2,57.8z"/>
	<path class="st0" d="M35.7,1.9c-1.2-0.2-2.4-0.4-3.7-0.5c-0.2,0-0.4,0-0.6,0c0,0-0.1,0-0.1,0c-0.2,0-0.4,0-0.6,0V0.6
		c0-0.3-0.2-0.6-0.5-0.7C32.2,0,34,0.6,35.7,1.9z"/>
	<path class="st0" d="M35.7,58.2c-0.3,0.2-0.6,0.4-0.9,0.6h-4.1v0C32.5,58.7,34.1,58.5,35.7,58.2z"/>
	<path class="st0" d="M35.7,0.5c-0.3-0.1-0.5-0.1-0.8-0.2C35.2,0.4,35.4,0.4,35.7,0.5z"/>
	<path class="st0" d="M34.9,0.3c-0.2,0-0.4-0.1-0.6-0.1C34.5,0.3,34.7,0.3,34.9,0.3z"/>
	<path class="st0" d="M30.8,58.7h4.1c-0.7,0.4-1.5,0.7-2.2,1c-0.8,0.1-1.7,0.1-2.5,0.1c0.4,0,0.7-0.3,0.7-0.7V58.7z"/>
	<polygon class="st0" points="34.8,27 33.1,34 31.5,34 30.3,29.4 30.3,29.4 29.2,34 27.6,34 25.8,27 27.5,27 28.5,31.4 28.5,31.7 
		28.6,31.7 29.7,27 31.2,27 32.4,31.7 32.4,31.7 32.5,31.4 33.5,27 	"/>
	<path class="st0" d="M32,1.4c-0.2,0-0.4,0-0.6,0C31.6,1.3,31.8,1.3,32,1.4z"/>
	<path class="st0" d="M31.5,0c-0.4,0-0.9,0-1.4,0C30.6,0,31,0,31.5,0z"/>
	<path class="st0" d="M32.4,58.4c-0.5,0.2-1.1,0.3-1.6,0.3v-0.3C31.3,58.4,31.9,58.4,32.4,58.4z"/>
	<path class="st0" d="M31.4,1.3c-0.2,0-0.4,0-0.6,0C31,1.3,31.2,1.3,31.4,1.3z"/>
	<path class="st0" d="M30.1,59.8c0.8,0,1.7,0,2.5-0.1c-0.8,0.2-1.7,0.4-2.5,0.4h0c-0.8,0-1.7-0.1-2.5-0.4
		C28.5,59.8,29.3,59.8,30.1,59.8z"/>
	<path class="st0" d="M30.8,58.7v0.4c0,0.4-0.3,0.7-0.7,0.7c-0.4,0-0.7-0.3-0.7-0.7v-0.4h0.7H30.8z"/>
	<path class="st0" d="M30.8,58.7L30.8,58.7l-0.7,0C30.4,58.7,30.6,58.7,30.8,58.7z"/>
	<path class="st0" d="M30.8,58.7L30.8,58.7c-0.2,0-0.4,0-0.7,0C30.4,58.7,30.6,58.7,30.8,58.7z"/>
	<path class="st0" d="M30.8,58.4v0.3c-0.2,0-0.4,0-0.7,0c-0.2,0-0.4,0-0.7,0v-0.3c0.2,0,0.4,0,0.7,0C30.4,58.5,30.6,58.5,30.8,58.4z
		"/>
	<path class="st0" d="M30.8,37.9v20.5c-0.2,0-0.4,0-0.7,0c-0.2,0-0.4,0-0.7,0V37.9c0.2,0,0.4,0,0.7,0C30.4,37.9,30.6,37.9,30.8,37.9
		z"/>
	<path class="st0" d="M30.8,37.2v0.7c-0.2,0-0.4,0-0.7,0c-0.2,0-0.4,0-0.7,0v-0.7c0-0.4,0.3-0.7,0.7-0.7
		C30.5,36.6,30.8,36.9,30.8,37.2z"/>
	<path class="st0" d="M30.8,21.9v0.7c0,0.4-0.3,0.7-0.7,0.7c-0.4,0-0.7-0.3-0.7-0.7v-0.7c0.2,0,0.4,0,0.7,0
		C30.4,21.9,30.6,21.9,30.8,21.9z"/>
	<path class="st0" d="M30.8,1.3v20.5c-0.2,0-0.4,0-0.7,0c-0.2,0-0.4,0-0.7,0V1.3c0.2,0,0.4,0,0.7,0C30.4,1.3,30.6,1.3,30.8,1.3z"/>
	<path class="st0" d="M30.8,1.3L30.8,1.3c-0.2,0-0.4,0-0.7,0C30.4,1.3,30.6,1.3,30.8,1.3z"/>
	<path class="st0" d="M30.8,0.6v0.7c-0.2,0-0.4,0-0.7,0c-0.2,0-0.4,0-0.7,0V0.6c0-0.4,0.3-0.7,0.7-0.7c0,0,0.1,0,0.1,0
		C30.6,0,30.8,0.3,30.8,0.6z"/>
	<path class="st0" d="M30.1,0c-0.1,0-0.3,0-0.4,0c-0.3,0-0.6,0-0.9,0C29.2,0,29.7,0,30.1,0z"/>
	<path class="st0" d="M29.7,0c0.1,0,0.3,0,0.4,0c-0.4,0-0.7,0.3-0.7,0.7v0.7c-0.2,0-0.4,0-0.6,0c0,0-0.1,0-0.1,0c-0.2,0-0.4,0-0.6,0
		c-1.2,0.1-2.5,0.2-3.6,0.5c0,0,0,0,0,0c1.5-1,3.1-1.7,4.7-1.8C29.4,0,29.5,0,29.7,0z"/>
	<path class="st0" d="M30.1,1.3c-0.2,0-0.4,0-0.7,0v0C29.7,1.3,29.9,1.3,30.1,1.3z"/>
	<path class="st0" d="M29.3,36.6c0.3,0,0.6,0,0.9,0c-0.4,0-0.7,0.3-0.7,0.7v0.7c-4.5,0.1-8.9,0.7-13,1.9c-0.1-0.4-0.2-0.9-0.2-1.3
		C20.4,37.3,24.8,36.6,29.3,36.6z"/>
	<path class="st0" d="M30.1,58.7h-0.7v0C29.7,58.7,29.9,58.7,30.1,58.7z"/>
	<path class="st0" d="M30.1,58.7c-0.2,0-0.4,0-0.7,0v0C29.7,58.7,29.9,58.7,30.1,58.7z"/>
	<path class="st0" d="M30.1,60.1H1.3c-0.4,0-0.7-0.3-0.7-0.7c0-0.4,0.3-0.7,0.7-0.7h19.9C24.1,59.6,27,60.1,30.1,60.1z"/>
	<path class="st0" d="M29.7,0c-0.1,0-0.3,0-0.4,0c-1.6,0.2-3.2,0.8-4.7,1.8c0,0,0,0,0,0c-0.2,0-0.5,0.1-0.7,0.2
		c-0.4,0.1-0.8,0.2-1.1,0.3c-0.6,0.1-1.1,0.3-1.7,0.5c-0.6,0.2-1.2,0.4-1.7,0.6c-0.3,0.1-0.5,0.2-0.8,0.3c-0.6,0.2-1.1,0.5-1.7,0.8
		c-0.2,0.1-0.5,0.2-0.7,0.4C15,5.6,13.9,6.3,12.9,7c-0.4,0.3-0.7,0.5-1,0.8c-2.5,2-4.7,4.5-6.4,7.4c0,0,0,0,0,0
		c-0.2,0.4-0.5,0.8-0.7,1.2c-0.2-0.1-0.4-0.2-0.6-0.4c-0.3-0.2-0.4-0.6-0.2-0.9c0.3-0.6,0.7-1.1,1-1.7c0.1-0.2,0.3-0.4,0.4-0.6
		c0.2-0.3,0.4-0.6,0.6-0.8c0.2-0.3,0.4-0.6,0.7-0.9C6.8,11,7,10.9,7.1,10.7c0.2-0.3,0.5-0.6,0.7-0.8c0,0,0,0,0,0
		c0.3-0.3,0.6-0.6,0.8-0.9c0.1-0.1,0.1-0.1,0.2-0.2C9.3,8.4,9.7,8,10.1,7.6c0.3-0.3,0.6-0.5,0.9-0.8c0.1,0,0.1-0.1,0.2-0.1
		c0.3-0.3,0.7-0.6,1.1-0.8c0.3-0.2,0.6-0.4,0.9-0.7c0.4-0.2,0.7-0.5,1.1-0.7c0.1-0.1,0.3-0.2,0.4-0.3c0.3-0.2,0.7-0.4,1-0.6
		c0.3-0.2,0.6-0.3,0.9-0.5c0,0,0,0,0,0c0.6-0.3,1.2-0.6,1.8-0.8c0.2-0.1,0.4-0.2,0.6-0.2c0.2-0.1,0.4-0.2,0.6-0.2c0,0,0,0,0.1,0
		c0.1,0,0.2-0.1,0.3-0.1c0.4-0.2,0.8-0.3,1.2-0.4c0.3-0.1,0.6-0.2,1-0.3s0.7-0.2,1-0.2c0.5-0.1,0.9-0.2,1.4-0.3
		c0.3-0.1,0.5-0.1,0.8-0.2c0.2,0,0.4-0.1,0.6-0.1C26.9,0.1,27.9,0,28.8,0C29.1,0,29.4,0,29.7,0z"/>
	<path class="st0" d="M29.5,22.5c0,0.4,0.3,0.7,0.7,0.7c-4.8,0-9.5-0.6-13.9-1.9c0.1-0.4,0.1-0.9,0.2-1.3c4.1,1.2,8.5,1.8,13,1.9
		V22.5z"/>
	<path class="st0" d="M29.5,59.1c0,0.4,0.3,0.7,0.7,0.7c-0.8,0-1.7,0-2.5-0.1c-0.8-0.2-1.5-0.5-2.2-1h4V59.1z"/>
	<path class="st0" d="M29.5,58.7L29.5,58.7l-4,0c-0.3-0.2-0.6-0.3-0.9-0.6C26.2,58.5,27.8,58.7,29.5,58.7z"/>
	<path class="st0" d="M29.5,58.7L29.5,58.7c-1.7,0-3.3-0.2-4.9-0.5c-0.2-0.1-0.3-0.2-0.5-0.4c1.2,0.3,2.5,0.5,3.8,0.6
		C28.4,58.5,28.9,58.7,29.5,58.7z"/>
	<path class="st0" d="M29.5,58.4v0.3c-0.5-0.1-1.1-0.2-1.6-0.3C28.4,58.4,28.9,58.4,29.5,58.4z"/>
	<path class="st0" d="M29.5,1.3L29.5,1.3C29.4,1.3,29.4,1.3,29.5,1.3c-5.9,0.6-11,8.2-13,18.7c-0.4-0.1-0.9-0.2-1.3-0.4
		c0.9-4.5,2.3-8.5,4.2-11.8c1.5-2.6,3.3-4.7,5.2-6c0,0,0,0,0,0c1.2-0.2,2.4-0.4,3.6-0.5c0.2,0,0.4,0,0.6,0c0,0,0,0,0.1,0
		C29.1,1.3,29.3,1.3,29.5,1.3z"/>
	<path class="st0" d="M29.5,1.3c-0.2,0-0.4,0-0.6,0C29.1,1.3,29.3,1.3,29.5,1.3z"/>
	<path class="st0" d="M28.8,1.3c-0.2,0-0.4,0-0.6,0C28.4,1.3,28.6,1.3,28.8,1.3z"/>
	<path class="st0" d="M27.6,59.7c0.8,0.2,1.7,0.4,2.5,0.4c-3.1,0-6.1-0.5-8.9-1.3h1C24,59.2,25.8,59.5,27.6,59.7z"/>
	<path class="st0" d="M26,0.2c-0.2,0-0.4,0.1-0.6,0.1C25.6,0.3,25.8,0.3,26,0.2z"/>
	<path class="st0" d="M25.4,58.7c0.7,0.4,1.5,0.7,2.2,1c-1.8-0.2-3.7-0.5-5.4-1H25.4z"/>
	<polygon class="st0" points="25.7,27 23.9,34 22.3,34 21.1,29.4 21.1,29.4 20,34 18.4,34 16.6,27 18.3,27 19.3,31.4 19.4,31.7 
		19.4,31.7 20.5,27 22,27 23.2,31.7 23.2,31.7 23.3,31.4 24.3,27 	"/>
	<path class="st0" d="M25.4,58.7h-3.2c-2.6-0.7-5.1-1.8-7.4-3.1c-4.5-2.7-8.2-6.5-10.8-11c-0.2-0.3-0.1-0.7,0.2-0.9
		c0.2-0.1,0.3-0.2,0.5-0.3c4,7.5,11.2,13.1,19.8,14.8C24.8,58.4,25.1,58.6,25.4,58.7z"/>
	<path class="st0" d="M25.4,0.3c-0.3,0-0.6,0.1-0.8,0.2C24.8,0.4,25.1,0.4,25.4,0.3z"/>
	<path class="st0" d="M24.6,1.8C24.6,1.8,24.6,1.9,24.6,1.8C24.6,1.8,24.6,1.8,24.6,1.8C24.6,1.8,24.6,1.8,24.6,1.8z"/>
	<path class="st0" d="M24.6,1.9c-0.2,0-0.5,0.1-0.7,0.2C24.1,1.9,24.3,1.9,24.6,1.9z"/>
	<path class="st0" d="M27.9,58.4c-1.3-0.1-2.6-0.3-3.8-0.6c-1.5-1.2-2.9-2.8-4.2-4.8c-2.1-3.4-3.8-7.9-4.7-12.9
		c0.4-0.1,0.9-0.3,1.3-0.4C18.3,49.6,22.7,56.7,27.9,58.4z"/>
	<path class="st0" d="M24,57.8c0.2,0.1,0.3,0.3,0.5,0.4C16,56.5,8.7,50.9,4.7,43.4c3.1-1.9,6.5-3.5,10.2-4.6
		c0.1,0.4,0.1,0.9,0.2,1.3c-3.5,1.1-6.7,2.5-9.7,4.4C9.6,51.4,16.4,56.1,24,57.8z"/>
	<path class="st0" d="M23.2,0.8c-0.3,0.1-0.7,0.2-1,0.2C22.5,0.9,22.8,0.9,23.2,0.8z"/>
	<path class="st0" d="M22.2,1c-0.3,0.1-0.6,0.2-1,0.3C21.5,1.2,21.9,1.1,22.2,1z"/>
	<path class="st0" d="M22.2,58.7h-1c-4.6-1.4-8.8-4-12.3-7.5C3.2,45.6,0.1,38,0.1,30c0-5.3,1.4-10.4,3.9-14.9
		c-0.2,0.3-0.1,0.7,0.2,0.9c0.2,0.1,0.4,0.3,0.6,0.4c-2.1,3.9-3.3,8.3-3.4,12.9H1.3c-0.4,0-0.7,0.3-0.7,0.7s0.3,0.7,0.7,0.7h0.1
		c0.1,4.6,1.3,8.9,3.3,12.7c-0.2,0.1-0.3,0.2-0.5,0.3c-0.3,0.2-0.4,0.6-0.2,0.9c2.6,4.5,6.3,8.3,10.8,11C17.1,57,19.6,58,22.2,58.7z
		"/>
	<path class="st0" d="M22.7,2.3c-0.6,0.2-1.1,0.3-1.7,0.5C21.6,2.6,22.1,2.4,22.7,2.3z"/>
	<path class="st0" d="M20,1.7c-0.1,0-0.2,0.1-0.3,0.1C19.8,1.8,19.9,1.7,20,1.7z"/>
	<path class="st0" d="M19.6,1.9C19.4,1.9,19.2,2,19,2.1C19.2,2,19.4,1.9,19.6,1.9z"/>
	<path class="st0" d="M19.3,3.4c-0.3,0.1-0.5,0.2-0.8,0.3C18.7,3.7,19,3.5,19.3,3.4z"/>
	<path class="st0" d="M19,2.1c-0.2,0.1-0.4,0.2-0.6,0.2C18.6,2.3,18.8,2.2,19,2.1z"/>
	<path class="st0" d="M18.4,2.3c-0.6,0.3-1.2,0.5-1.8,0.8C17.2,2.9,17.8,2.6,18.4,2.3z"/>
	<path class="st0" d="M16.8,4.6c-0.2,0.1-0.5,0.2-0.7,0.4C16.3,4.8,16.6,4.7,16.8,4.6z"/>
	<path class="st0" d="M16.6,3.2c-0.3,0.1-0.6,0.3-0.9,0.5C16,3.5,16.3,3.3,16.6,3.2z"/>
	<path class="st0" d="M16.5,20c-0.1,0.4-0.2,0.9-0.2,1.3c-0.4-0.1-0.9-0.2-1.3-0.4c0.1-0.4,0.2-0.9,0.2-1.3
		C15.6,19.8,16.1,19.9,16.5,20z"/>
	<path class="st0" d="M16.2,38.4c0.1,0.4,0.1,0.9,0.2,1.3c-0.4,0.1-0.9,0.2-1.3,0.4c-0.1-0.4-0.2-0.9-0.2-1.3
		C15.4,38.7,15.8,38.6,16.2,38.4z"/>
	<path class="st0" d="M15,21c0.4,0.1,0.9,0.3,1.3,0.4c-0.2,1.3-0.4,2.6-0.5,3.9c0,0.3-0.3,0.6-0.7,0.6c0,0,0,0-0.1,0
		c-0.4,0-0.6-0.3-0.6-0.7C14.6,23.7,14.7,22.3,15,21z"/>
	<path class="st0" d="M16.2,38.4c-0.4,0.1-0.9,0.2-1.3,0.4c-0.2-0.9-0.3-1.9-0.4-2.9c0-0.4,0.2-0.7,0.6-0.7c0.4,0,0.7,0.2,0.7,0.6
		C16,36.7,16.1,37.6,16.2,38.4z"/>
	<path class="st0" d="M15.2,19.6c-0.1,0.4-0.2,0.9-0.2,1.3c-3.6-1.1-7.1-2.6-10.1-4.5c0.2-0.4,0.4-0.8,0.7-1.2
		C8.5,17.1,11.7,18.5,15.2,19.6z"/>
	<path class="st0" d="M14.7,4.2c-0.1,0.1-0.3,0.2-0.4,0.3C14.4,4.4,14.6,4.3,14.7,4.2z"/>
	<path class="st0" d="M13.2,5.2c-0.3,0.2-0.6,0.4-0.9,0.7C12.6,5.6,12.9,5.4,13.2,5.2z"/>
	<path class="st0" d="M12.9,7c-0.3,0.3-0.7,0.5-1,0.8C12.2,7.6,12.6,7.3,12.9,7z"/>
	<path class="st0" d="M12.8,29.4c0.4,0,0.7,0.3,0.7,0.7s-0.3,0.7-0.7,0.7H1.4c0-0.2,0-0.4,0-0.7s0-0.4,0-0.7H12.8z"/>
	<path class="st0" d="M12.3,5.8c-0.4,0.3-0.7,0.5-1.1,0.8C11.6,6.4,11.9,6.1,12.3,5.8z"/>
	<path class="st0" d="M11,6.8c-0.3,0.3-0.6,0.5-0.9,0.8C10.4,7.3,10.7,7.1,11,6.8z"/>
	<path class="st0" d="M11.9,7.9c-2.5,2.1-4.7,4.6-6.4,7.4c0,0,0,0,0,0C7.2,12.4,9.4,9.9,11.9,7.9z"/>
	<path class="st0" d="M8.7,8.9C8.4,9.2,8.1,9.5,7.9,9.8C8.1,9.5,8.4,9.2,8.7,8.9z"/>
	<path class="st0" d="M8,1.3c0.4,0,0.7,0.3,0.7,0.7c0,0.4-0.3,0.7-0.7,0.7H4.6V6c0,0.4-0.3,0.7-0.7,0.7C3.6,6.6,3.3,6.3,3.3,6V2
		c0-0.4,0.3-0.7,0.7-0.7H8z"/>
	<path class="st0" d="M7.9,9.9c-0.3,0.3-0.5,0.6-0.7,0.8C7.4,10.4,7.6,10.1,7.9,9.9z"/>
	<path class="st0" d="M6.7,11.2c-0.2,0.3-0.5,0.6-0.7,0.9C6.2,11.8,6.5,11.5,6.7,11.2z"/>
	<path class="st0" d="M5.4,12.9c-0.1,0.2-0.3,0.4-0.4,0.6C5.2,13.3,5.3,13.1,5.4,12.9z"/>
	<path class="st0" d="M1.4,30c0,0.2,0,0.4,0,0.7H1.3c-0.4,0-0.7-0.3-0.7-0.7s0.3-0.7,0.7-0.7h0.1C1.4,29.6,1.4,29.8,1.4,30z"/>
</g>
</svg>
